<?xml version="1.0" encoding="UTF-8" standalone="no"?>
<svg
   xmlns:dc="http://purl.org/dc/elements/1.1/"
   xmlns:cc="http://creativecommons.org/ns#"
   xmlns:rdf="http://www.w3.org/1999/02/22-rdf-syntax-ns#"
   xmlns:svg="http://www.w3.org/2000/svg"
   xmlns="http://www.w3.org/2000/svg"
   xmlns:sodipodi="http://sodipodi.sourceforge.net/DTD/sodipodi-0.dtd"
   xmlns:inkscape="http://www.inkscape.org/namespaces/inkscape"
   version="1.1"
   id="Layer_3"
   x="0px"
   y="0px"
   viewBox="0 0 400 422.89221"
   xml:space="preserve"
   sodipodi:docname="dog.svg"
   width="400"
   height="422.89221"
   inkscape:version="1.0.2 (e86c870879, 2021-01-15)"><metadata
   id="metadata41"><rdf:RDF><cc:Work
       rdf:about=""><dc:format>image/svg+xml</dc:format><dc:type
         rdf:resource="http://purl.org/dc/dcmitype/StillImage" /><dc:title></dc:title></cc:Work></rdf:RDF></metadata><defs
   id="defs39" /><sodipodi:namedview
   pagecolor="#ffffff"
   bordercolor="#666666"
   borderopacity="1"
   objecttolerance="10"
   gridtolerance="10"
   guidetolerance="10"
   inkscape:pageopacity="0"
   inkscape:pageshadow="2"
   inkscape:window-width="1920"
   inkscape:window-height="1145"
   id="namedview37"
   showgrid="false"
   inkscape:zoom="5.484375"
   inkscape:cx="59.913129"
   inkscape:cy="59.517052"
   inkscape:window-x="0"
   inkscape:window-y="0"
   inkscape:window-maximized="1"
   inkscape:current-layer="Layer_3"
   fit-margin-top="0"
   fit-margin-left="0"
   fit-margin-right="0"
   fit-margin-bottom="0" />
<path
   style="fill:#ffd2b1;stroke-width:3.53431"
   d="m 87.838731,207.34771 c 0,0 -8.447007,24.38676 -3.49897,50.25793 4.983381,25.87116 11.945978,49.76312 11.945978,49.76312 0,0 1.48441,50.75273 0,56.23092 -1.484412,5.47818 -12.935585,12.44078 -12.935585,22.40754 0,9.96676 3.640342,22.54891 22.054116,25.55308 18.41377,3.00416 33.32857,-3.14554 39.47827,-10.60294 8.87112,-10.77965 7.13931,-18.41377 7.13931,-26.36597 0,-7.95221 0.49481,-53.72156 2.47402,-60.7195 1.97922,-6.96259 4.98338,-10.95636 10.46157,-10.46156 5.47818,0.4948 11.45117,8.94181 11.94597,24.88156 0.49481,15.90441 0.98961,43.79014 0.49481,49.26832 -0.49481,5.47819 -5.47819,23.89195 -1.48441,31.34935 3.99377,7.4574 22.05411,14.70275 35.9793,13.9252 18.23705,-0.98961 29.19342,-12.44078 30.18303,-21.3826 0.98961,-8.94181 -4.98338,-29.37013 -4.98338,-35.34312 0,-5.97299 6.9626,-46.75896 8.94181,-49.26832 1.97922,-2.47402 8.05823,-1.94387 21.38259,-7.95221 12.1227,-5.47818 18.59049,-10.95637 18.59049,-10.95637 0,0 0.31809,35.34313 -0.17672,39.30156 -0.4948,3.99378 -12.44078,16.43456 -10.46156,25.87117 1.97921,9.43662 13.64244,14.95014 24.03332,15.90441 17.56554,1.66113 34.67161,-11.94598 39.12485,-23.89196 4.48857,-11.94597 2.47401,-26.86077 1.48441,-34.81298 -0.98961,-7.9522 -0.98961,-35.83793 0,-43.29533 0.9896,-7.4574 2.61539,-11.98132 3.25156,-15.9044 0.98961,-6.4678 0.74221,-13.6778 0.74221,-13.6778 0,0 17.17676,0 27.35558,-6.71519 10.17882,-6.71519 20.88779,-18.41377 25.62377,-32.83376 4.62995,-14.10191 3.49897,-18.41377 -0.49481,-18.90858 -3.99377,-0.4948 -21.87739,24.59882 -37.07494,25.37637 -24.13935,1.23701 -21.73602,-24.63416 -40.14979,-40.29117 -20.74641,-17.67156 -53.08538,-19.89818 -53.08538,-19.89818 0,0 5.58422,-20.88779 5.6549,-36.33273 0.24741,-67.434689 -32.58636,-90.301693 -32.58636,-90.301693 0,0 -39.47827,-29.4054818 -84.25802,-27.42626668 C 110.21093,2.0748254 77.377165,37.665355 77.377165,37.665355 L 52.743005,146.38081 c 0,0 6.220391,20.88779 16.187153,36.08534 10.461566,15.9044 18.908573,24.88156 18.908573,24.88156 z"
   id="path2"
   inkscape:export-xdpi="96"
   inkscape:export-ydpi="96" />
<path
   style="fill:none;stroke:#6ba3ab;stroke-width:3.53431;stroke-miterlimit:10"
   d="M 332.87264,190.17095"
   id="path4"
   inkscape:export-xdpi="96"
   inkscape:export-ydpi="96" />
<path
   style="fill:#865b52;stroke-width:3.53431"
   d="M 56.736779,13.561342 C 20.156642,14.303548 0.82395109,45.476186 0.25846109,64.561475 -0.05962701,75.765246 -4.477518,157.19581 40.549626,158.85694 c 18.060339,0.67152 31.490727,-20.28696 38.311951,-44.03754 8.58838,-29.935627 8.199605,-59.941942 9.189213,-67.929489 1.590441,-12.758869 4.241175,-22.124798 4.241175,-22.124798 0,0 -4.453234,-11.839947 -35.555186,-11.203771 z"
   id="path6"
   inkscape:export-xdpi="96"
   inkscape:export-ydpi="96" />
<path
   style="fill:#865b52;stroke-width:3.53431"
   d="m 252.53771,1.120561 c 39.79636,1.4844114 53.36812,19.120632 57.22052,29.370139 4.24118,11.203771 7.9522,51.176849 1.73181,77.86091 -5.05406,21.77136 -12.68818,32.83376 -30.60715,32.09156 C 264.48368,139.77165 256.17805,116.1271 243.80795,83.964852 231.86198,52.8629 222.70811,25.012515 221.15301,21.018742 c -1.97922,-5.230783 -6.22039,-7.4574 -6.22039,-7.4574 0,0 7.9522,-13.57176108 37.60509,-12.440781 z"
   id="path8"
   inkscape:export-xdpi="96"
   inkscape:export-ydpi="96" />
<path
   style="fill:#d27856;stroke-width:3.53431"
   d="m 207.01576,81.950294 c -19.65078,1.237009 -29.05205,23.079056 -24.88156,45.027146 4.48857,23.64455 20.00421,34.84832 39.54896,32.33896 21.38259,-2.72142 27.85038,-27.10818 25.12896,-45.52195 C 244.30276,97.041812 234.8308,80.183137 207.01576,81.950294 Z"
   id="path10"
   inkscape:export-xdpi="96"
   inkscape:export-ydpi="96" />
<path
   style="fill:#060401;stroke-width:3.53431"
   d="m 230.13016,121.99406 c 0,10.32019 -5.72558,18.94391 -14.80877,18.69651 -12.33475,-0.35343 -15.55097,-11.27446 -15.30357,-20.46367 0.28274,-10.74431 6.71519,-15.83372 15.90441,-15.58632 8.1996,0.17672 14.20793,7.03328 14.20793,17.35348 z"
   id="path12"
   inkscape:export-xdpi="96"
   inkscape:export-ydpi="96" />
<path
   style="fill:#060401;stroke-width:3.53431"
   d="m 126.39808,127.6843 c 0,10.74431 -5.72558,19.72146 -14.80877,19.43872 -12.334751,-0.35343 -15.550971,-11.73392 -15.303571,-21.31191 0.28274,-11.20377 7.952201,-15.97509 15.162201,-15.44494 8.16426,0.60083 14.95014,6.57382 14.95014,17.31813 z"
   id="path14"
   inkscape:export-xdpi="96"
   inkscape:export-ydpi="96" />
<path
   style="fill:#060401;stroke-width:3.53431"
   d="m 173.65185,187.69693 c 0,0 21.62999,-2.22662 20.64038,-17.91897 -0.98961,-15.657 -15.657,-16.68195 -27.10818,-16.43455 -11.45117,0.2474 -27.85038,6.22039 -26.11857,19.40338 1.73182,13.18298 20.39299,14.9148 20.39299,14.9148 0,0 -0.0354,9.7547 -6.4678,10.46156 -6.96259,0.74221 -16.92935,-9.96676 -19.65077,-12.68818 -2.72143,-2.72142 -6.9626,-1.73181 -8.44701,0.4948 -1.48441,2.22662 -0.49481,7.21 3.74637,11.45118 4.24117,4.24117 14.17259,14.9148 24.13936,13.92519 9.96676,-0.98961 10.21416,-6.22039 14.17259,-6.46779 3.99377,-0.24741 3.74637,5.72558 13.67779,5.47818 6.99794,-0.17671 21.09985,-12.47612 23.64455,-14.6674 5.72559,-4.98338 7.21,-9.96676 4.73598,-13.18298 -2.47402,-3.21623 -9.43661,1.48441 -13.18299,4.24117 -3.74637,2.72142 -9.79004,9.15387 -15.657,10.21417 -9.7547,1.73181 -8.51769,-9.22456 -8.51769,-9.22456 z"
   id="path16"
   inkscape:export-xdpi="96"
   inkscape:export-ydpi="96" />
<path
   style="fill:#d27856;stroke-width:3.53431"
   d="m 261.97432,164.37047 c 0,0 -4.70063,10.32019 -8.62372,18.59048 -4.73598,9.96676 -11.52186,18.66117 -11.52186,18.66117 0,0 7.66946,52.4492 53.29744,47.92528 16.32852,-1.62578 28.69861,-14.41999 29.86494,-27.99175 1.97921,-22.90235 -6.7152,-33.61132 -20.21627,-44.07288 -21.8774,-16.89402 -42.80053,-13.1123 -42.80053,-13.1123 z"
   id="path18"
   inkscape:export-xdpi="96"
   inkscape:export-ydpi="96" />
<path
   style="fill:#d27856;stroke-width:3.53431"
   d="m 230.37757,246.40186 c -8.09358,7.42206 -3.74638,21.3826 6.96259,22.90235 10.70897,1.48441 16.4699,-7.42206 15.65701,-14.17259 -1.20167,-10.46157 -13.39505,-17.17676 -22.6196,-8.72976 z"
   id="path20"
   inkscape:export-xdpi="96"
   inkscape:export-ydpi="96" />
<path
   style="fill:#d27856;stroke-width:3.53431"
   d="m 124.66627,232.61804 c 0,0 -7.13931,19.5801 7.9522,44.10823 6.43245,10.42622 20.74642,16.29318 30.85455,15.9044 10.67363,-0.38877 20.3223,-4.0998 28.5926,-14.41999 13.18298,-16.43456 9.43661,-43.79014 9.43661,-43.79014 0,0 -20.88779,8.58838 -40.04376,7.95221 -20.39299,-0.63618 -36.7922,-9.75471 -36.7922,-9.75471 z"
   id="path22"
   inkscape:export-xdpi="96"
   inkscape:export-ydpi="96" />
<path
   style="fill:#d27856;stroke-width:3.53431"
   d="m 98.618389,382.47291 c -5.195444,-1.59045 -7.280688,6.46779 -7.63412,11.59254 -0.353431,5.12475 -0.318088,11.76926 4.311862,13.43039 4.629948,1.66113 3.711028,-8.19961 4.135148,-11.45117 0.848231,-6.25574 4.665291,-11.91064 -0.81289,-13.57176 z"
   id="path24"
   inkscape:export-xdpi="96"
   inkscape:export-ydpi="96" />
<path
   style="fill:#d27856;stroke-width:3.53431"
   d="m 119.01137,385.47707 c -3.11019,-0.14137 -6.39711,3.00417 -6.78588,12.12269 -0.31809,7.63412 0,13.9252 4.31186,14.27863 5.79627,0.45946 4.17049,-6.9626 4.48858,-13.1123 0.14137,-3.49897 4.45323,-12.97093 -2.01456,-13.28902 z"
   id="path26"
   inkscape:export-xdpi="96"
   inkscape:export-ydpi="96" />
<path
   style="fill:#d27856;stroke-width:3.53431"
   d="m 198.14463,395.40849 c -4.98338,0 -5.12475,5.6549 -5.12475,11.76926 0,6.14971 -1.27235,13.74848 4.31186,14.42 6.78588,0.81289 5.47819,-8.30564 5.47819,-13.43039 -0.0354,-4.45324 0.77754,-12.75887 -4.6653,-12.75887 z"
   id="path28"
   inkscape:export-xdpi="96"
   inkscape:export-ydpi="96" />
<path
   style="fill:#d27856;stroke-width:3.53431"
   d="m 220.69355,394.27751 c -3.99377,0.81289 -3.64034,6.29108 -3.49897,12.93558 0.17671,6.64451 -0.81289,13.67779 4.80666,13.1123 4.80667,-0.4948 4.48858,-8.30563 4.31187,-14.27862 -0.14138,-5.1601 0.53014,-13.07696 -5.61956,-11.76926 z"
   id="path30"
   inkscape:export-xdpi="96"
   inkscape:export-ydpi="96" />
<path
   style="fill:#d27856;stroke-width:3.53431"
   d="m 289.01181,351.05286 c -3.42828,-0.67151 -7.31602,2.22662 -8.30563,9.96677 -0.81289,6.6445 -0.4948,12.47612 5.30147,13.74847 2.96882,0.67152 3.49897,-6.96259 3.64034,-12.44078 0.17672,-4.73598 3.67569,-10.42622 -0.63618,-11.27446 z"
   id="path32"
   inkscape:export-xdpi="96"
   inkscape:export-ydpi="96" />
<path
   style="fill:#d27856;stroke-width:3.53431"
   d="m 307.74367,355.08198 c -3.28691,-0.53015 -6.50313,1.48441 -7.35137,9.71936 -0.4948,4.80667 -2.26196,13.43039 3.71103,13.74848 4.62995,0.21206 4.27652,-7.38672 4.70064,-11.34515 0.67151,-6.25573 4.3472,-11.20377 -1.0603,-12.12269 z"
   id="path34"
   inkscape:export-xdpi="96"
   inkscape:export-ydpi="96" />
</svg>
