<?xml version="1.0" encoding="UTF-8" standalone="no"?>
<svg
   xmlns:dc="http://purl.org/dc/elements/1.1/"
   xmlns:cc="http://creativecommons.org/ns#"
   xmlns:rdf="http://www.w3.org/1999/02/22-rdf-syntax-ns#"
   xmlns:svg="http://www.w3.org/2000/svg"
   xmlns="http://www.w3.org/2000/svg"
   xmlns:sodipodi="http://sodipodi.sourceforge.net/DTD/sodipodi-0.dtd"
   xmlns:inkscape="http://www.inkscape.org/namespaces/inkscape"
   version="1.1"
   id="Layer_3"
   x="0px"
   y="0px"
   viewBox="0 0 550 550"
   xml:space="preserve"
   sodipodi:docname="dog.svg"
   width="550"
   height="550"
   inkscape:version="1.0.2 (e86c870879, 2021-01-15)"
   inkscape:export-filename="/opt/mobile/lerninseln/pickUp/public/assets/img/scores/dog.png"
   inkscape:export-xdpi="96"
   inkscape:export-ydpi="96"><metadata
   id="metadata41"><rdf:RDF><cc:Work
       rdf:about=""><dc:format>image/svg+xml</dc:format><dc:type
         rdf:resource="http://purl.org/dc/dcmitype/StillImage" /><dc:title></dc:title></cc:Work></rdf:RDF></metadata><defs
   id="defs39" /><sodipodi:namedview
   pagecolor="#ffffff"
   bordercolor="#666666"
   borderopacity="1"
   objecttolerance="10"
   gridtolerance="10"
   guidetolerance="10"
   inkscape:pageopacity="0"
   inkscape:pageshadow="2"
   inkscape:window-width="1920"
   inkscape:window-height="1145"
   id="namedview37"
   showgrid="false"
   inkscape:zoom="1.3710938"
   inkscape:cx="258.3308"
   inkscape:cy="295.62184"
   inkscape:window-x="0"
   inkscape:window-y="0"
   inkscape:window-maximized="1"
   inkscape:current-layer="Layer_3"
   fit-margin-top="0"
   fit-margin-left="0"
   fit-margin-right="0"
   fit-margin-bottom="0"
   inkscape:document-rotation="0" />
<path
   style="fill:#ffd2b1;stroke-width:3.53431"
   d="m 161.03531,269.73107 c 0,0 -8.44701,24.38676 -3.49897,50.25793 4.98338,25.87116 11.94597,49.76312 11.94597,49.76312 0,0 1.48441,50.75273 0,56.23092 -1.48441,5.47818 -12.93558,12.44078 -12.93558,22.40754 0,9.96676 3.64034,22.54891 22.05412,25.55308 18.41377,3.00416 33.32857,-3.14554 39.47827,-10.60294 8.87112,-10.77965 7.13931,-18.41377 7.13931,-26.36597 0,-7.95221 0.49481,-53.72156 2.47402,-60.7195 1.97922,-6.96259 4.98338,-10.95636 10.46157,-10.46156 5.47818,0.4948 11.45117,8.94181 11.94597,24.88156 0.49481,15.90441 0.98961,43.79014 0.49481,49.26832 -0.49481,5.47819 -5.47819,23.89195 -1.48441,31.34935 3.99377,7.4574 22.05411,14.70275 35.9793,13.9252 18.23705,-0.98961 29.19342,-12.44078 30.18303,-21.3826 0.98961,-8.94181 -4.98338,-29.37013 -4.98338,-35.34312 0,-5.97299 6.9626,-46.75896 8.94181,-49.26832 1.97922,-2.47402 8.05823,-1.94387 21.38259,-7.95221 12.1227,-5.47818 18.59049,-10.95637 18.59049,-10.95637 0,0 0.31809,35.34313 -0.17672,39.30156 -0.4948,3.99378 -12.44078,16.43456 -10.46156,25.87117 1.97921,9.43662 13.64244,14.95014 24.03332,15.90441 17.56554,1.66113 34.67161,-11.94598 39.12485,-23.89196 4.48857,-11.94597 2.47401,-26.86077 1.48441,-34.81298 -0.98961,-7.9522 -0.98961,-35.83793 0,-43.29533 0.9896,-7.4574 2.61539,-11.98132 3.25156,-15.9044 0.98961,-6.4678 0.74221,-13.6778 0.74221,-13.6778 0,0 17.17676,0 27.35558,-6.71519 10.17882,-6.71519 20.88779,-18.41377 25.62377,-32.83376 4.62995,-14.10191 3.49897,-18.41377 -0.49481,-18.90858 -3.99377,-0.4948 -21.87739,24.59882 -37.07494,25.37637 -24.13935,1.23701 -21.73602,-24.63416 -40.14979,-40.29117 -20.74641,-17.67156 -53.08538,-19.89818 -53.08538,-19.89818 0,0 5.58422,-20.88779 5.6549,-36.33273 0.24741,-67.43469 -32.58636,-90.301695 -32.58636,-90.301695 0,0 -39.47827,-29.405482 -84.25802,-27.426267 -44.77974,1.979215 -77.61351,37.569742 -77.61351,37.569742 l -24.63416,108.71546 c 0,0 6.22039,20.88779 16.18715,36.08534 10.46157,15.9044 18.90858,24.88156 18.90858,24.88156 z"
   id="path2"
   inkscape:export-xdpi="96"
   inkscape:export-ydpi="96" />
<path
   style="fill:none;stroke:#6ba3ab;stroke-width:3.53431;stroke-miterlimit:10"
   d="M 406.06922,252.55431"
   id="path4"
   inkscape:export-xdpi="96"
   inkscape:export-ydpi="96" />
<path
   style="fill:#865b52;stroke-width:3.53431"
   d="m 129.93335,75.9447 c -36.580133,0.742206 -55.912824,31.91484 -56.478314,51.00013 -0.318088,11.20377 -4.735979,92.63434 40.291164,94.29547 18.06034,0.67152 31.49073,-20.28696 38.31195,-44.03754 8.58838,-29.93563 8.19961,-59.94194 9.18922,-67.92949 1.59044,-12.75887 4.24117,-22.124799 4.24117,-22.124799 0,0 -4.45323,-11.839947 -35.55519,-11.203771 z"
   id="path6"
   inkscape:export-xdpi="96"
   inkscape:export-ydpi="96" />
<path
   style="fill:#865b52;stroke-width:3.53431"
   d="m 325.73429,63.503919 c 39.79636,1.484411 53.36812,19.120632 57.22052,29.370139 4.24118,11.203772 7.9522,51.176852 1.73181,77.860912 -5.05406,21.77136 -12.68818,32.83376 -30.60715,32.09156 -16.39921,-0.67152 -24.70484,-24.31607 -37.07494,-56.47832 -11.94597,-31.10195 -21.09984,-58.952337 -22.65494,-62.94611 -1.97922,-5.230783 -6.22039,-7.4574 -6.22039,-7.4574 0,0 7.9522,-13.571761 37.60509,-12.440781 z"
   id="path8"
   inkscape:export-xdpi="96"
   inkscape:export-ydpi="96" />
<path
   style="fill:#d27856;stroke-width:3.53431"
   d="m 280.21234,144.33365 c -19.65078,1.23701 -29.05205,23.07906 -24.88156,45.02715 4.48857,23.64455 20.00421,34.84832 39.54896,32.33896 21.38259,-2.72142 27.85038,-27.10818 25.12896,-45.52195 -2.50936,-16.75264 -11.98132,-33.61131 -39.79636,-31.84416 z"
   id="path10"
   inkscape:export-xdpi="96"
   inkscape:export-ydpi="96" />
<path
   style="fill:#060401;stroke-width:3.53431"
   d="m 303.32674,184.37742 c 0,10.32019 -5.72558,18.94391 -14.80877,18.69651 -12.33475,-0.35343 -15.55097,-11.27446 -15.30357,-20.46367 0.28274,-10.74431 6.71519,-15.83372 15.90441,-15.58632 8.1996,0.17672 14.20793,7.03328 14.20793,17.35348 z"
   id="path12"
   inkscape:export-xdpi="96"
   inkscape:export-ydpi="96" />
<path
   style="fill:#060401;stroke-width:3.53431"
   d="m 199.59466,190.06766 c 0,10.74431 -5.72558,19.72146 -14.80877,19.43872 -12.33476,-0.35343 -15.55098,-11.73392 -15.30358,-21.31191 0.28274,-11.20377 7.95221,-15.97509 15.16221,-15.44494 8.16426,0.60083 14.95014,6.57382 14.95014,17.31813 z"
   id="path14"
   inkscape:export-xdpi="96"
   inkscape:export-ydpi="96" />
<path
   style="fill:#060401;stroke-width:3.53431"
   d="m 246.84843,250.08029 c 0,0 21.62999,-2.22662 20.64038,-17.91897 -0.98961,-15.657 -15.657,-16.68195 -27.10818,-16.43455 -11.45117,0.2474 -27.85038,6.22039 -26.11857,19.40338 1.73182,13.18298 20.39299,14.9148 20.39299,14.9148 0,0 -0.0354,9.7547 -6.4678,10.46156 -6.96259,0.74221 -16.92935,-9.96676 -19.65077,-12.68818 -2.72143,-2.72142 -6.9626,-1.73181 -8.44701,0.4948 -1.48441,2.22662 -0.49481,7.21 3.74637,11.45118 4.24117,4.24117 14.17259,14.9148 24.13936,13.92519 9.96676,-0.98961 10.21416,-6.22039 14.17259,-6.46779 3.99377,-0.24741 3.74637,5.72558 13.67779,5.47818 6.99794,-0.17671 21.09985,-12.47612 23.64455,-14.6674 5.72559,-4.98338 7.21,-9.96676 4.73598,-13.18298 -2.47402,-3.21623 -9.43661,1.48441 -13.18299,4.24117 -3.74637,2.72142 -9.79004,9.15387 -15.657,10.21417 -9.7547,1.73181 -8.51769,-9.22456 -8.51769,-9.22456 z"
   id="path16"
   inkscape:export-xdpi="96"
   inkscape:export-ydpi="96" />
<path
   style="fill:#d27856;stroke-width:3.53431"
   d="m 335.1709,226.75383 c 0,0 -4.70063,10.32019 -8.62372,18.59048 -4.73598,9.96676 -11.52186,18.66117 -11.52186,18.66117 0,0 7.66946,52.4492 53.29744,47.92528 16.32852,-1.62578 28.69861,-14.41999 29.86494,-27.99175 1.97921,-22.90235 -6.7152,-33.61132 -20.21627,-44.07288 -21.8774,-16.89402 -42.80053,-13.1123 -42.80053,-13.1123 z"
   id="path18"
   inkscape:export-xdpi="96"
   inkscape:export-ydpi="96" />
<path
   style="fill:#d27856;stroke-width:3.53431"
   d="m 303.57415,308.78522 c -8.09358,7.42206 -3.74638,21.3826 6.96259,22.90235 10.70897,1.48441 16.4699,-7.42206 15.65701,-14.17259 -1.20167,-10.46157 -13.39505,-17.17676 -22.6196,-8.72976 z"
   id="path20"
   inkscape:export-xdpi="96"
   inkscape:export-ydpi="96" />
<path
   style="fill:#d27856;stroke-width:3.53431"
   d="m 197.86285,295.0014 c 0,0 -7.13931,19.5801 7.9522,44.10823 6.43245,10.42622 20.74642,16.29318 30.85455,15.9044 10.67363,-0.38877 20.3223,-4.0998 28.5926,-14.41999 13.18298,-16.43456 9.43661,-43.79014 9.43661,-43.79014 0,0 -20.88779,8.58838 -40.04376,7.95221 -20.39299,-0.63618 -36.7922,-9.75471 -36.7922,-9.75471 z"
   id="path22"
   inkscape:export-xdpi="96"
   inkscape:export-ydpi="96" />
<path
   style="fill:#d27856;stroke-width:3.53431"
   d="m 171.81496,444.85627 c -5.19544,-1.59045 -7.28068,6.46779 -7.63412,11.59254 -0.35343,5.12475 -0.31808,11.76926 4.31187,13.43039 4.62994,1.66113 3.71102,-8.19961 4.13514,-11.45117 0.84824,-6.25574 4.6653,-11.91064 -0.81289,-13.57176 z"
   id="path24"
   inkscape:export-xdpi="96"
   inkscape:export-ydpi="96" />
<path
   style="fill:#d27856;stroke-width:3.53431"
   d="m 192.20795,447.86043 c -3.11019,-0.14137 -6.39711,3.00417 -6.78588,12.12269 -0.31809,7.63412 0,13.9252 4.31186,14.27863 5.79627,0.45946 4.17049,-6.9626 4.48858,-13.1123 0.14137,-3.49897 4.45323,-12.97093 -2.01456,-13.28902 z"
   id="path26"
   inkscape:export-xdpi="96"
   inkscape:export-ydpi="96" />
<path
   style="fill:#d27856;stroke-width:3.53431"
   d="m 271.34121,457.79185 c -4.98338,0 -5.12475,5.6549 -5.12475,11.76926 0,6.14971 -1.27235,13.74848 4.31186,14.42 6.78588,0.81289 5.47819,-8.30564 5.47819,-13.43039 -0.0354,-4.45324 0.77754,-12.75887 -4.6653,-12.75887 z"
   id="path28"
   inkscape:export-xdpi="96"
   inkscape:export-ydpi="96" />
<path
   style="fill:#d27856;stroke-width:3.53431"
   d="m 293.89013,456.66087 c -3.99377,0.81289 -3.64034,6.29108 -3.49897,12.93558 0.17671,6.64451 -0.81289,13.67779 4.80666,13.1123 4.80667,-0.4948 4.48858,-8.30563 4.31187,-14.27862 -0.14138,-5.1601 0.53014,-13.07696 -5.61956,-11.76926 z"
   id="path30"
   inkscape:export-xdpi="96"
   inkscape:export-ydpi="96" />
<path
   style="fill:#d27856;stroke-width:3.53431"
   d="m 362.20839,413.43622 c -3.42828,-0.67151 -7.31602,2.22662 -8.30563,9.96677 -0.81289,6.6445 -0.4948,12.47612 5.30147,13.74847 2.96882,0.67152 3.49897,-6.96259 3.64034,-12.44078 0.17672,-4.73598 3.67569,-10.42622 -0.63618,-11.27446 z"
   id="path32"
   inkscape:export-xdpi="96"
   inkscape:export-ydpi="96" />
<path
   style="fill:#d27856;stroke-width:3.53431"
   d="m 380.94025,417.46534 c -3.28691,-0.53015 -6.50313,1.48441 -7.35137,9.71936 -0.4948,4.80667 -2.26196,13.43039 3.71103,13.74848 4.62995,0.21206 4.27652,-7.38672 4.70064,-11.34515 0.67151,-6.25573 4.3472,-11.20377 -1.0603,-12.12269 z"
   id="path34"
   inkscape:export-xdpi="96"
   inkscape:export-ydpi="96" />
<circle
   style="fill:none;fill-opacity:0;stroke:#ffffff;stroke-width:7.05822;stroke-opacity:1"
   id="path2653"
   cx="275"
   cy="275"
   r="271.47089" /></svg>
