<?xml version="1.0" encoding="UTF-8" standalone="no"?>
<svg
   xmlns:dc="http://purl.org/dc/elements/1.1/"
   xmlns:cc="http://creativecommons.org/ns#"
   xmlns:rdf="http://www.w3.org/1999/02/22-rdf-syntax-ns#"
   xmlns:svg="http://www.w3.org/2000/svg"
   xmlns="http://www.w3.org/2000/svg"
   xmlns:sodipodi="http://sodipodi.sourceforge.net/DTD/sodipodi-0.dtd"
   xmlns:inkscape="http://www.inkscape.org/namespaces/inkscape"
   version="1.1"
   id="Layer_2"
   x="0px"
   y="0px"
   viewBox="0 0 400 360.59781"
   xml:space="preserve"
   sodipodi:docname="horse.svg"
   width="400"
   height="360.59781"
   inkscape:version="1.0.2 (e86c870879, 2021-01-15)"><metadata
   id="metadata127"><rdf:RDF><cc:Work
       rdf:about=""><dc:format>image/svg+xml</dc:format><dc:type
         rdf:resource="http://purl.org/dc/dcmitype/StillImage" /><dc:title></dc:title></cc:Work></rdf:RDF></metadata><defs
   id="defs125" /><sodipodi:namedview
   pagecolor="#ffffff"
   bordercolor="#666666"
   borderopacity="1"
   objecttolerance="10"
   gridtolerance="10"
   guidetolerance="10"
   inkscape:pageopacity="0"
   inkscape:pageshadow="2"
   inkscape:window-width="1920"
   inkscape:window-height="1145"
   id="namedview123"
   showgrid="false"
   fit-margin-top="0"
   fit-margin-left="0"
   fit-margin-right="0"
   fit-margin-bottom="0"
   inkscape:zoom="5.484375"
   inkscape:cx="60.852382"
   inkscape:cy="54.832584"
   inkscape:window-x="0"
   inkscape:window-y="0"
   inkscape:window-maximized="1"
   inkscape:current-layer="Layer_2" />
<path
   style="fill:#feaf5f;stroke-width:3.23904"
   d="m 47.297759,30.390604 c 0,0 -10.30016,-23.1591647 -17.037372,-21.2157387 -6.737211,1.9434257 -0.971713,32.4876117 -0.971713,32.4876117 z"
   id="path43"
   inkscape:export-xdpi="96"
   inkscape:export-ydpi="96" />
<path
   style="fill:#865b52;stroke-width:3.23904"
   d="m 319.05356,152.59973 c 0,0 12.21119,-4.17836 20.89183,7.70893 8.68064,11.88729 5.18247,25.68562 16.81064,41.68649 7.32024,10.04104 16.42195,7.32024 25.87996,4.59945 9.68474,-2.75319 17.03737,-3.0447 17.36128,3.20665 0.0972,1.87865 -2.36451,13.66877 -12.85901,24.45478 -11.56339,11.8873 -27.17558,20.24403 -50.4643,11.10993 -21.31291,-8.35674 -27.27276,-36.18013 -27.27276,-36.18013 z"
   id="path45"
   inkscape:export-xdpi="96"
   inkscape:export-ydpi="96" />
<path
   style="fill:#865b52;stroke-width:3.23904"
   d="m 179.15924,114.96204 c 0,0 25.26455,-15.061546 20.24403,-29.896372 -5.31204,-15.709364 -24.7463,-2.234941 -28.95706,-7.385021 -4.63183,-5.700717 18.9808,-19.952511 5.47399,-34.722552 -13.50682,-14.770041 -27.88817,6.154184 -32.81152,0.323904 -4.82617,-5.733108 11.23948,-18.009085 0.97171,-30.544185 -10.26777,-12.53510082 -27.66143,-0.647809 -32.81151,3.206653 -3.78968,2.850359 -10.94797,8.032829 -19.952512,9.976256 -9.004542,1.943426 -23.483069,-3.530558 -36.01817,-3.530558 -12.535101,0 -31.191994,8.356734 -35.046457,24.746297 -3.854462,16.389563 -6.121793,24.130878 -9.004542,25.394105 -2.8827499,1.263227 -10.94796932,0 -11.23948332,5.797889 -0.291514,5.797889 7.70892542,7.385021 18.65689332,6.737212 10.947969,-0.647809 26.365819,-8.356734 32.811517,-16.389563 6.445698,-8.03283 11.887292,-20.244026 11.887292,-20.244026 z"
   id="path47"
   inkscape:export-xdpi="96"
   inkscape:export-ydpi="96" />
<linearGradient
   id="SVGID_1_"
   gradientUnits="userSpaceOnUse"
   x1="23.8605"
   y1="70.7817"
   x2="19.9165"
   y2="102.3338"
   gradientTransform="matrix(3.2390441,0,0,3.2390441,-10.195273,-29.693664)">
	<stop
   offset="0.306"
   style="stop-color:#B3875D"
   id="stop49" />
	<stop
   offset="0.5668"
   style="stop-color:#A87C5B"
   id="stop51" />
	<stop
   offset="0.9265"
   style="stop-color:#916656"
   id="stop53" />
</linearGradient>
<path
   style="fill:url(#SVGID_1_);stroke-width:3.23904"
   d="m 88.789914,198.27025 c 0,0 -17.037372,10.62407 -25.71801,13.18291 -8.680638,2.55885 -20.244026,-0.97171 -28.309245,7.06112 -8.03283,8.03283 -3.530558,15.45024 -6.737212,23.48307 -3.206654,8.03283 -15.709364,20.17924 -14.478527,32.16371 1.619522,15.74175 15.288288,23.32111 15.288288,23.32111 0,0 13.020957,-12.37314 12.697053,-23.96892 -0.323905,-11.59578 -0.323905,-17.03737 1.295617,-22.51136 1.619522,-5.47398 8.03283,-15.12633 12.859005,-16.71347 4.826176,-1.61952 22.187452,-0.97171 29.896377,-1.29561 7.708925,-0.32391 22.18745,-1.61953 22.18745,-1.61953 z"
   id="path56"
   inkscape:export-xdpi="96"
   inkscape:export-ydpi="96" />
<linearGradient
   id="SVGID_2_"
   gradientUnits="userSpaceOnUse"
   x1="76.399101"
   y1="58.587299"
   x2="72.262604"
   y2="104.0895"
   gradientTransform="matrix(3.2390441,0,0,3.2390441,-10.195273,-29.693664)">
	<stop
   offset="0.4757"
   style="stop-color:#B3875D"
   id="stop58" />
	<stop
   offset="0.7346"
   style="stop-color:#A4785A"
   id="stop60" />
	<stop
   offset="0.9854"
   style="stop-color:#916656"
   id="stop62" />
</linearGradient>
<path
   style="fill:url(#SVGID_2_);stroke-width:3.23904"
   d="m 271.76351,163.2238 -79.09745,68.79729 -4.11359,15.19112 c 0,0 12.79422,-2.17016 16.97259,-3.46578 4.17837,-1.29561 10.13821,-2.72079 10.13821,-2.72079 0,0 2.0406,2.6884 3.3686,9.32844 1.61953,8.03283 1.29562,13.18291 0.64781,14.15463 -1.78147,2.65601 -14.15462,7.70892 -18.9808,8.03282 -4.82617,0.32391 -17.03737,-1.71669 -22.83526,7.38503 -4.50227,7.06111 -2.13777,10.20298 -2.55884,11.88729 -0.64781,2.55884 -5.95984,4.01641 -4.01642,8.84259 1.94343,4.82617 26.20387,2.10538 26.20387,2.10538 0,0 1.52235,-6.54287 2.88275,-6.73722 3.36861,-0.48585 9.00454,-1.94342 12.5351,-6.44569 3.53056,-4.50227 30.86809,-6.4457 33.75084,-12.2112 4.17837,-8.35673 -0.64781,-19.3047 -0.97171,-29.57247 -0.32391,-10.26777 -0.32391,-19.14275 0.48585,-20.89184 9.32845,-5.47398 21.7016,-17.03737 21.7016,-17.03737 l 22.18745,-38.90092 z"
   id="path65"
   inkscape:export-xdpi="96"
   inkscape:export-ydpi="96" />
<polygon
   style="fill:#b3875d"
   points="32.84,31.96 27.48,40.99 28.97,47.94 31.73,53.25 45.16,42.58 "
   id="polygon67"
   transform="matrix(3.2390441,0,0,3.2390441,-10.195273,-29.693664)"
   inkscape:export-xdpi="96"
   inkscape:export-ydpi="96" />
<path
   style="fill:#feaf5f;stroke-width:3.23904"
   d="m 90.409436,138.44511 c 0.971713,3.36861 2.23494,7.70893 2.882749,11.56339 0.647809,3.85446 0.971713,9.65235 0.971713,9.65235 0,0 -12.697053,7.38502 -14.478527,19.3047 -1.651912,11.1747 0.388686,29.50769 5.538766,38.83614 5.15008,9.32845 13.280085,16.64869 21.701593,19.53144 9.1341,3.14187 20.21163,9.23127 41.49215,11.10992 14.80244,1.29561 35.37037,4.17836 60.76447,-8.68064 25.39411,-12.85901 46.05921,-44.051 49.58977,-50.4967 3.53055,-6.4457 10.62406,-16.71347 14.15462,-13.83072 3.53056,2.88275 -6.4457,9.65235 -9.00454,22.83526 -2.55885,13.18291 0.84215,29.05423 19.6286,34.72256 19.95251,6.02462 45.73531,-3.85447 50.56148,-41.49216 4.82618,-37.63769 -17.13454,-63.90634 -37.37857,-74.27128 -15.74175,-8.06522 -33.16781,-8.74542 -43.66231,-5.79789 -5.70072,1.61952 -10.68885,6.1218 -15.67697,7.70893 -4.0812,1.32801 -21.86355,1.87864 -31.35395,1.29562 -11.10992,-0.6802 -8.61586,-4.85857 -18.55972,-11.30427 -9.97626,-6.4457 -13.02096,-4.56705 -16.81064,-8.32434 -4.89096,-4.826176 -24.22805,-33.103028 -50.8206,-50.8206 C 96.790353,34.53658 83.769395,33.435305 83.769395,33.435305 c 0,0 2.17016,-6.283745 0.647809,-16.227611 C 83.445491,10.923949 77.971507,0.33227498 74.440949,0.00837058 71.072343,-0.31553382 64.918159,8.8185703 63.331027,17.369647 c -1.943426,10.462112 0.971714,17.361276 0.971714,17.361276 0,0 -0.71259,21.215739 -12.794225,35.694266 -12.081634,14.478527 38.577015,7.223068 45.573346,10.364941 6.996338,3.141872 12.502708,18.073864 11.563388,31.12721 -1.13366,16.87542 -18.494938,25.68562 -18.235814,26.52777 z"
   id="path69"
   inkscape:export-xdpi="96"
   inkscape:export-ydpi="96" />
<linearGradient
   id="SVGID_3_"
   gradientUnits="userSpaceOnUse"
   x1="41.299099"
   y1="112.1117"
   x2="45.998299"
   y2="70.4907"
   gradientTransform="matrix(3.2390441,0,0,3.2390441,-10.195273,-29.693664)">
	<stop
   offset="0"
   style="stop-color:#865B52"
   id="stop71" />
	<stop
   offset="0.5454"
   style="stop-color:#FEAF5F"
   id="stop73" />
</linearGradient>
<path
   style="fill:url(#SVGID_3_);stroke-width:3.23904"
   d="m 124.64613,236.13468 c 0,0 -2.39689,6.51048 -3.62773,7.48219 -1.19845,0.97171 -9.16649,9.87909 -12.79422,13.50682 -3.62773,3.62772 -8.19479,8.61585 -10.138208,10.30016 -1.943428,1.6843 -10.073429,6.12179 -9.652353,14.5433 0.647809,12.95618 7.061116,14.21941 8.453903,20.98901 1.13367,5.60355 2.26733,13.44203 6.024618,19.53143 4.34032,6.99634 10.46212,10.68885 20.11447,10.68885 9.65235,0 15.35307,-19.36948 15.35307,-19.36948 0,0 -8.45391,-12.04925 -12.30837,-11.33666 -3.85446,0.71259 -4.50227,4.50227 -6.73721,3.14188 -2.62363,-1.58714 -3.46578,-7.38503 -4.17837,-10.5269 -0.71259,-3.14187 -2.65602,-6.89916 -1.45757,-8.35673 1.19845,-1.45757 13.47442,-7.90327 19.85534,-12.2112 10.68885,-7.22307 38.57702,-28.95705 38.57702,-28.95705 0,0 19.33709,-50.04323 -19.04558,-43.88905 -33.00586,5.27964 -28.43881,34.46343 -28.43881,34.46343 z"
   id="path76"
   inkscape:export-xdpi="96"
   inkscape:export-ydpi="96" />
<linearGradient
   id="SVGID_4_"
   gradientUnits="userSpaceOnUse"
   x1="62.057499"
   y1="118.415"
   x2="96.687103"
   y2="68.958504"
   gradientTransform="matrix(3.2390441,0,0,3.2390441,-10.195273,-29.693664)">
	<stop
   offset="0"
   style="stop-color:#865B52"
   id="stop78" />
	<stop
   offset="0.1355"
   style="stop-color:#9F6C55"
   id="stop80" />
	<stop
   offset="0.4209"
   style="stop-color:#DD985B"
   id="stop82" />
	<stop
   offset="0.5603"
   style="stop-color:#FEAF5F"
   id="stop84" />
</linearGradient>
<path
   style="fill:url(#SVGID_4_);stroke-width:3.23904"
   d="m 300.39666,162.57599 c -9.45801,-1.58713 -35.53231,12.30837 -38.25311,48.06741 -1.45757,19.14275 -4.11359,34.65777 -5.31203,39.71068 -1.19845,5.05291 -3.36861,11.82251 -4.56705,12.79423 -1.19845,0.97171 -8.09761,5.57115 -13.5716,13.57159 -5.63594,8.19478 -4.01641,16.81064 -5.70072,19.20753 -1.6843,2.3969 -8.13,7.8061 -13.57159,13.28008 -3.69251,3.69251 -16.06566,3.14188 -20.89183,8.68064 -4.82618,5.53877 -4.11359,11.56339 -4.11359,11.56339 0,0 -9.32845,2.39689 -11.98446,8.68064 -2.65602,6.28374 3.53055,14.2194 8.84259,14.96438 5.31203,0.74498 16.74585,2.62363 17.84713,1.45757 3.53056,-3.85446 0.97171,-12.04924 0.97171,-12.04924 0,0 5.31203,0 10.13821,-6.51048 4.82618,-6.51048 11.33665,-10.62407 16.87542,-15.19112 5.53877,-4.56705 26.20387,-19.56382 30.1555,-26.78689 5.21486,-9.55518 3.36861,-18.55973 6.99634,-24.35761 3.62773,-5.79789 10.68884,-11.98447 23.96892,-22.83526 10.62407,-8.68064 22.96482,-16.32479 31.67785,-37.79965 12.43793,-30.86809 -23.7098,-45.47618 -29.50769,-46.44789 z"
   id="path87"
   inkscape:export-xdpi="96"
   inkscape:export-ydpi="96" />
<radialGradient
   id="SVGID_5_"
   cx="-0.1165"
   cy="70.575897"
   r="51.661301"
   gradientUnits="userSpaceOnUse"
   gradientTransform="matrix(3.2390441,0,0,3.2390441,-10.195273,-29.693664)">
	<stop
   offset="0.2263"
   style="stop-color:#865B52"
   id="stop89" />
	<stop
   offset="0.2846"
   style="stop-color:#895D52"
   id="stop91" />
	<stop
   offset="0.3359"
   style="stop-color:#946554"
   id="stop93" />
	<stop
   offset="0.3846"
   style="stop-color:#A67255"
   id="stop95" />
	<stop
   offset="0.4317"
   style="stop-color:#C08358"
   id="stop97" />
	<stop
   offset="0.4772"
   style="stop-color:#E09A5C"
   id="stop99" />
	<stop
   offset="0.5117"
   style="stop-color:#FEAF5F"
   id="stop101" />
</radialGradient>
<path
   style="fill:url(#SVGID_5_);stroke-width:3.23904"
   d="m 99.802662,78.393237 c -3.854461,1.45757 -6.510477,1.198446 -6.283744,4.340319 0.226733,3.141873 9.652352,10.850798 7.223062,25.556054 -2.429278,14.70526 -11.822504,22.67331 -20.503143,25.55606 -8.680638,2.88275 -18.009085,2.49406 -18.009085,2.49406 l -12.373148,14.15462 c 0,0 0.809761,11.72534 -7.061116,17.03738 -5.830279,3.91924 -9.328447,2.72079 -9.328447,2.72079 0,0 -5.182471,4.43749 -11.109921,2.55885 C 14.648195,170.41448 1.1413811,160.76212 2.5665605,139.8379 3.8945686,120.59798 18.178753,108.71069 21.385407,101.42284 c 1.48996,-3.433386 0.809761,-16.713467 0.809761,-16.713467 0,0 18.656893,-4.502271 27.98534,-15.288288 6.640041,-7.676535 12.373149,-18.980798 12.697053,-23.645022 0.323905,-4.664223 54.837019,16.389563 54.837019,16.389563 z"
   id="path104"
   inkscape:export-xdpi="96"
   inkscape:export-ydpi="96" />
<path
   style="fill:#2f2927;stroke-width:3.23904"
   d="m 63.946446,84.450249 c 2.396892,4.437491 0.518247,9.717135 -3.336216,11.822515 -3.174263,1.74908 -9.879084,-0.19435 -11.595778,-4.53467 -2.008207,-5.117685 -0.842151,-9.296052 3.044702,-11.401431 3.886853,-2.072988 9.490399,-0.323904 11.887292,4.113586 z"
   id="path106"
   inkscape:export-xdpi="96"
   inkscape:export-ydpi="96" />
<path
   style="fill:#523226;stroke-width:3.23904"
   d="m 12.413254,143.75714 c -2.6560159,2.52646 -2.396892,7.54698 0.485857,12.5351 2.882749,4.98813 6.283746,7.38502 9.490399,5.31204 3.206654,-2.07299 1.781474,-8.19479 -0.323904,-13.02096 -2.105379,-4.82618 -6.899164,-7.38502 -9.652352,-4.82618 z"
   id="path108"
   inkscape:export-xdpi="96"
   inkscape:export-ydpi="96" />
<path
   style="fill:#523226;stroke-width:3.23904"
   d="m 36.511742,149.55503 c 0,-0.97171 -4.826175,-9.29606 0.71259,-12.30837 3.66012,-1.97581 7.708925,0.97172 7.35263,6.02463 -0.356295,4.85856 -2.526454,6.64004 -2.526454,6.64004 0,0 0.485856,2.52645 -1.328008,11.69295 -1.360399,6.96394 -3.984025,7.83848 -5.668327,9.16649 -1.263228,1.0041 -7.611754,3.14187 -6.640041,1.55474 0.971713,-1.55474 5.797889,-7.48219 6.866774,-12.89139 0.809761,-4.01642 1.230836,-9.87909 1.230836,-9.87909 z"
   id="path110"
   inkscape:export-xdpi="96"
   inkscape:export-ydpi="96" />
<path
   style="fill:#6b4733;stroke-width:3.23904"
   d="m 41.435089,274.22584 c 0,0 -3.789681,7.12589 -6.024622,11.01275 -3.141872,5.44159 -8.680638,10.46211 -8.680638,10.46211 0,0 6.154184,8.8102 13.733547,11.95207 7.611754,3.14188 10.494503,-10.23538 9.52279,-21.47486 -0.485857,-5.66833 -1.684303,-9.16649 -3.984025,-10.98036 -1.392788,-1.10127 -4.567052,-0.97171 -4.567052,-0.97171 z"
   id="path112"
   inkscape:export-xdpi="96"
   inkscape:export-ydpi="96" />
<path
   style="fill:#6b4733;stroke-width:3.23904"
   d="m 123.67442,303.57158 c 2.39689,4.17836 4.92334,10.04103 4.56705,15.74175 -0.48586,8.32434 -5.89506,13.86311 -5.89506,13.86311 0,0 6.54287,1.97582 16.45434,1.55474 6.73721,-0.29151 10.81841,-1.81386 11.88729,-3.7249 1.10128,-1.94343 -1.10127,-12.17881 -6.28374,-20.37359 -5.18247,-8.19478 -9.52279,-8.97215 -12.04925,-9.78191 -3.69251,-1.13367 -8.68063,2.7208 -8.68063,2.7208 z"
   id="path114"
   inkscape:export-xdpi="96"
   inkscape:export-ydpi="96" />
<path
   style="fill:#6b4733;stroke-width:3.23904"
   d="m 185.31343,300.65644 c -7.22307,-0.22674 -14.47853,-2.3969 -14.47853,-2.3969 0,0 -1.55474,4.69662 -2.0406,11.69295 -0.48586,6.73722 -0.84215,12.40554 1.94343,13.37726 2.78557,0.97171 10.4945,-0.61542 18.33299,-5.89506 4.08119,-2.75319 7.83848,-8.68064 8.55107,-10.23538 0.71259,-1.55474 0.71259,-6.73722 0.71259,-6.73722 0,0 -7.22307,0.38869 -13.02095,0.19435 z"
   id="path116"
   inkscape:export-xdpi="96"
   inkscape:export-ydpi="96" />
<path
   style="fill:#6b4733;stroke-width:3.23904"
   d="m 184.56845,335.11987 c -1.81387,0.84215 -4.82618,6.38091 -7.22307,10.1382 -2.3969,3.72491 -5.27964,9.10172 -5.05291,10.8508 0.35629,2.88275 4.34032,4.69662 15.80653,4.46988 11.46622,-0.22673 18.55973,-3.85446 19.40188,-4.34032 0.84215,-0.48585 2.17016,-2.65601 2.17016,-2.65601 0,0 -4.21076,-5.66833 -11.82251,-11.33666 -7.61176,-5.66832 -13.28008,-7.12589 -13.28008,-7.12589 z"
   id="path118"
   inkscape:export-xdpi="96"
   inkscape:export-ydpi="96" />
<path
   style="fill:#b3875d;stroke-width:3.23904"
   d="m 118.68629,241.67344 c 0,0 -4.01642,-3.78968 -6.34853,-7.48219 -3.3686,-5.31203 -4.56705,-8.93976 -5.53876,-17.13454 -0.6802,-5.70072 3.14187,-16.35717 -4.69662,-17.19932 -5.895055,-0.64781 -8.939757,2.81796 -8.324338,13.34486 0.485856,8.64825 5.53877,18.81884 6.510478,20.01729 0.97171,1.19845 2.94753,3.14187 8.06522,5.53877 5.11769,2.39689 10.33255,2.91513 10.33255,2.91513 z"
   id="path120"
   inkscape:export-xdpi="96"
   inkscape:export-ydpi="96" />
</svg>
