<?xml version="1.0" encoding="UTF-8" standalone="no"?>
<svg
   xmlns:dc="http://purl.org/dc/elements/1.1/"
   xmlns:cc="http://creativecommons.org/ns#"
   xmlns:rdf="http://www.w3.org/1999/02/22-rdf-syntax-ns#"
   xmlns:svg="http://www.w3.org/2000/svg"
   xmlns="http://www.w3.org/2000/svg"
   xmlns:sodipodi="http://sodipodi.sourceforge.net/DTD/sodipodi-0.dtd"
   xmlns:inkscape="http://www.inkscape.org/namespaces/inkscape"
   version="1.1"
   id="Layer_3"
   x="0px"
   y="0px"
   viewBox="0 0 400 378.17941"
   xml:space="preserve"
   sodipodi:docname="snail.svg"
   width="400"
   height="378.17941"
   inkscape:version="1.0.2 (e86c870879, 2021-01-15)"><metadata
   id="metadata154"><rdf:RDF><cc:Work
       rdf:about=""><dc:format>image/svg+xml</dc:format><dc:type
         rdf:resource="http://purl.org/dc/dcmitype/StillImage" /><dc:title></dc:title></cc:Work></rdf:RDF></metadata><defs
   id="defs152" /><sodipodi:namedview
   pagecolor="#ffffff"
   bordercolor="#666666"
   borderopacity="1"
   objecttolerance="10"
   gridtolerance="10"
   guidetolerance="10"
   inkscape:pageopacity="0"
   inkscape:pageshadow="2"
   inkscape:window-width="1920"
   inkscape:window-height="1145"
   id="namedview150"
   showgrid="false"
   fit-margin-top="0"
   fit-margin-left="0"
   fit-margin-right="0"
   fit-margin-bottom="0"
   inkscape:zoom="5.484375"
   inkscape:cx="59.91624"
   inkscape:cy="57.730084"
   inkscape:window-x="0"
   inkscape:window-y="0"
   inkscape:window-maximized="1"
   inkscape:current-layer="Layer_3" />
<path
   style="fill:#a05d43;stroke-width:3.31826"
   d="m 80.787199,156.19086 c 0,0 5.541498,-60.259636 76.419571,-92.977694 82.79063,-38.226376 168.20269,15.828109 190.76687,81.529684 19.2791,56.11181 -2.22323,114.01548 -23.89148,133.12867 -21.66825,19.11319 -50.30485,68.1571 -140.1302,64.34109 C 94.159795,338.36343 62.934951,204.6043 80.787199,156.19086 Z"
   id="path129"
   inkscape:export-xdpi="96"
   inkscape:export-ydpi="96" />
<path
   style="fill:#d27856;stroke-width:3.31826"
   d="m 152.12983,319.25024 c 13.10713,13.60488 52.85991,23.55966 88.53122,12.11166 35.67132,-11.448 37.56273,-22.29872 37.56273,-22.29872 0,0 -53.49038,17.1886 -85.97617,2.55506 -32.48578,-14.63353 -50.9685,-76.41957 -50.9685,-76.41957 0,0 -22.92919,49.01073 10.85072,84.05157 z"
   id="path131"
   inkscape:export-xdpi="96"
   inkscape:export-ydpi="96" />
<path
   style="fill:#e9bb91;stroke-width:3.31826"
   d="m 61.674011,147.132 c -7.200628,5.40877 -13.372595,16.2263 -17.188596,23.39375 -3.816001,7.16744 -4.778297,14.79945 -17.188596,22.46463 -12.410299,7.632 -22.9291887,4.31374 -26.2806331,7.632 -3.3514445,3.31827 1.4268525,15.76175 16.7240391,17.68634 15.297187,1.92459 21.966893,-2.38915 21.966893,-2.38915 0,0 1.426853,35.33949 1.426853,54.45268 0,19.11318 10.51889,93.57498 70.712159,104.62479 48.57935,8.92613 75.95501,-3.01962 89.32761,-10.18706 22.96237,-12.31075 29.13434,-20.37413 45.39382,-25.65017 16.2263,-5.24285 26.47973,0.0664 43.80106,-6.83562 19.11318,-7.632 22.92918,-26.74519 34.37719,-35.33948 11.448,-8.5943 20.87186,-6.20515 31.85531,-15.29719 10.98345,-9.09204 8.5943,-18.48272 26.57928,-34.24446 6.8688,-6.00606 14.79945,-10.98345 16.72404,-16.2263 1.92459,-5.24286 -25.7829,-6.70289 -32.48579,-6.70289 -6.70288,0 -15.99402,0.23228 -15.99402,0.23228 0,0 -3.58372,14.56717 -7.89746,23.6592 -4.31374,9.09204 -34.87493,50.17212 -44.43153,54.45268 -9.55659,4.31374 -15.92765,4.31374 -20.87186,6.20515 -4.94421,1.92459 -31.22485,15.29719 -42.20829,16.72404 -10.98345,1.42685 -46.22339,9.62296 -66.39842,-11.31527 -16.88995,-17.52043 -21.0046,-40.74826 -21.9669,-53.6563 -0.96229,-12.90804 -0.96229,-46.82067 -0.96229,-46.82067 0,0 5.74059,6.83562 24.52195,6.83562 11.48119,0 20.37413,-12.01211 18.1509,-16.2263 -2.85371,-5.40877 -15.82811,-3.74964 -21.9669,-7.33336 -7.632,-4.44647 -15.29718,-16.2263 -17.18859,-21.66825 -1.79186,-5.04376 -6.20515,-17.68634 -14.00307,-24.85378 -8.03019,-7.36654 -19.41183,-13.3726 -38.22637,-13.04077 -17.188601,0.29864 -26.745195,2.25642 -36.301789,9.42386 z"
   id="path133"
   inkscape:export-xdpi="96"
   inkscape:export-ydpi="96" />
<path
   style="fill:#e9bb91;stroke-width:3.31826"
   d="m 133.81302,159.07775 c 0,0 7.63201,-74.992717 8.5943,-86.93846 0.9623,-11.945743 5.74059,-40.117785 5.74059,-48.247527 0,-8.129741 -2.38914,-21.9668931 -16.72404,-23.3937457 C 117.08898,-0.9288353 112.31069,16.724318 111.84613,28.67006 111.38157,40.615803 106.10554,143.316 106.10554,143.316 l -20.540044,-0.46455 c 0,0 0.464557,-64.473828 0.962296,-77.846423 0.464557,-13.372595 0.464557,-36.301784 0.464557,-41.080081 0,-4.778297 0,-24.8537813 -18.150892,-23.8914854 -18.150892,0.962296 -16.2263,21.9668934 -16.72404,28.6697824 -0.497739,6.702889 2.853706,54.917233 3.351445,64.473827 0.464556,9.55659 4.778297,62.58241 4.778297,62.58241 z"
   id="path135"
   inkscape:export-xdpi="96"
   inkscape:export-ydpi="96" />
<path
   style="fill:#d27856;stroke-width:3.31826"
   d="m 96.71486,179.45187 c 0,0 -6.03924,13.04077 -14.633538,13.04077 -8.594299,0 -8.594299,-7.33336 -13.040769,-4.44647 -4.446471,2.85371 -1.924592,15.92766 9.556594,18.15089 11.448003,2.22324 18.150893,-4.14782 18.150893,-4.14782 0,0 6.8688,4.77829 13.37259,4.77829 8.29566,0 17.52043,-12.11165 14.00307,-17.52042 -3.51736,-5.40877 -9.5566,4.14783 -15.29719,3.816 -5.74059,-0.29864 -12.11165,-13.67124 -12.11165,-13.67124 z"
   id="path137"
   inkscape:export-xdpi="96"
   inkscape:export-ydpi="96" />
<path
   style="fill:#d27856;stroke-width:3.31826"
   d="m 182.89012,65.701862 c -15.42992,4.645567 -21.63507,11.116177 -26.28064,15.496283 -4.64556,4.380105 -6.37106,14.401259 -0.89593,20.208215 5.47513,5.80695 15.16446,3.91554 20.30776,0.26546 5.14331,-3.650086 9.98797,-7.333356 17.81907,-9.523411 7.79791,-2.190053 19.54456,-2.754158 23.12828,-4.745115 3.58373,-1.957774 6.17197,-7.665184 4.94421,-13.671238 -1.22775,-6.039237 -4.51283,-9.490229 -13.27304,-11.01663 -6.5038,-1.128209 -15.52947,-0.09955 -25.74971,2.986436 z"
   id="path139"
   inkscape:export-xdpi="96"
   inkscape:export-ydpi="96" />
<path
   style="fill:#d27856;stroke-width:3.31826"
   d="m 232.69723,74.362525 c 0,4.446471 1.26093,7.963829 9.55659,8.926125 9.25795,1.061843 12.74212,-3.517358 12.4103,-8.295655 -0.33183,-4.844662 -2.55506,-7.632002 -9.22477,-8.926124 -6.70289,-1.26094 -12.74212,1.592766 -12.74212,8.295654 z"
   id="path141"
   inkscape:export-xdpi="96"
   inkscape:export-ydpi="96" />
<path
   style="fill:#2e2c2f;stroke-width:3.31826"
   d="m 141.27911,33.581088 c -1.62595,13.604873 -5.80696,23.692389 -12.74212,22.929189 -10.02115,-1.128209 -9.88842,-12.410299 -9.88842,-26.114721 0,-12.841673 3.78282,-22.8960062 13.70442,-21.8009802 9.49023,1.028661 10.45252,12.2443862 8.92612,24.9865122 z"
   id="path143"
   inkscape:export-xdpi="96"
   inkscape:export-ydpi="96" />
<path
   style="fill:#2e2c2f;stroke-width:3.31826"
   d="M 81.152208,32.320148 C 80.754017,46.02457 76.639372,55.050242 70.235127,55.581164 62.636307,56.211633 58.256202,43.801334 57.85801,30.428739 57.493001,17.587066 60.213976,9.2250458 69.571474,8.6277588 80.554921,7.8645588 81.517217,19.478475 81.152208,32.320148 Z"
   id="path145"
   inkscape:export-xdpi="96"
   inkscape:export-ydpi="96" />
<path
   style="fill:#4f352e;stroke-width:3.31826"
   d="m 281.74113,286.43263 c -19.71047,-1.09502 -49.0439,-19.74365 -50.0062,-74.8268 -0.9623,-55.08315 20.40731,-79.17373 43.93379,-75.15863 22.29871,3.816 26.11472,33.74672 23.55965,54.45268 -2.55506,20.70595 -8.59429,44.26561 -22.29871,37.56272 -13.70443,-6.70289 -6.37107,-32.15396 -3.51736,-38.22638 2.8537,-6.03923 7.00153,-13.04077 2.8537,-17.18859 -4.14782,-4.14783 -13.37259,0.96229 -17.18859,8.5943 -3.816,7.632 -11.77983,25.78289 -4.14783,50.0062 7.632,24.19013 39.15549,27.07702 51.59897,2.55506 12.4103,-24.52195 15.29719,-70.38033 4.44647,-91.71675 -10.81753,-21.33643 -46.1902,-45.227906 -80.23557,-6.03924 -32.91716,37.86137 -20.70595,104.75753 -12.74212,124.50118 7.96382,19.74366 24.85378,43.63515 58.26867,47.78297 33.4149,4.14783 61.78604,-35.33949 64.00927,-38.85684 2.22324,-3.51736 10.81754,-14.96536 3.18553,-21.50234 -7.632,-6.53697 -16.2263,8.42839 -18.48271,11.61392 -2.15687,3.21871 -20.30777,27.74067 -43.23696,26.44654 z"
   id="path147"
   inkscape:export-xdpi="96"
   inkscape:export-ydpi="96" />
</svg>
