<?xml version="1.0" encoding="UTF-8" standalone="no"?>
<svg
   xmlns:dc="http://purl.org/dc/elements/1.1/"
   xmlns:cc="http://creativecommons.org/ns#"
   xmlns:rdf="http://www.w3.org/1999/02/22-rdf-syntax-ns#"
   xmlns:svg="http://www.w3.org/2000/svg"
   xmlns="http://www.w3.org/2000/svg"
   xmlns:sodipodi="http://sodipodi.sourceforge.net/DTD/sodipodi-0.dtd"
   xmlns:inkscape="http://www.inkscape.org/namespaces/inkscape"
   version="1.1"
   id="Layer_3"
   x="0px"
   y="0px"
   viewBox="0 0 549.99976 549.99975"
   xml:space="preserve"
   sodipodi:docname="snail.svg"
   width="549.99976"
   height="549.99976"
   inkscape:version="1.0.2 (e86c870879, 2021-01-15)"
   inkscape:export-filename="/opt/mobile/lerninseln/pickUp/public/assets/img/scores/snail.png"
   inkscape:export-xdpi="96"
   inkscape:export-ydpi="96"><metadata
   id="metadata154"><rdf:RDF><cc:Work
       rdf:about=""><dc:format>image/svg+xml</dc:format><dc:type
         rdf:resource="http://purl.org/dc/dcmitype/StillImage" /><dc:title></dc:title></cc:Work></rdf:RDF></metadata><defs
   id="defs152" /><sodipodi:namedview
   pagecolor="#ffffff"
   bordercolor="#666666"
   borderopacity="1"
   objecttolerance="10"
   gridtolerance="10"
   guidetolerance="10"
   inkscape:pageopacity="0"
   inkscape:pageshadow="2"
   inkscape:window-width="1920"
   inkscape:window-height="1145"
   id="namedview150"
   showgrid="false"
   fit-margin-top="0"
   fit-margin-left="0"
   fit-margin-right="0"
   fit-margin-bottom="0"
   inkscape:zoom="1.3710938"
   inkscape:cx="235.1957"
   inkscape:cy="234.06053"
   inkscape:window-x="0"
   inkscape:window-y="0"
   inkscape:window-maximized="1"
   inkscape:current-layer="Layer_3"
   inkscape:document-rotation="0" />
<path
   style="fill:#a05d43;stroke-width:3.31826"
   d="m 155.24181,240.44813 c 0,0 5.5415,-60.25963 76.41957,-92.97769 82.79063,-38.22638 168.20269,15.82811 190.76687,81.52968 19.2791,56.11181 -2.22323,114.01548 -23.89148,133.12867 -21.66825,19.11319 -50.30485,68.1571 -140.1302,64.34109 C 168.61441,422.6207 137.38956,288.86157 155.24181,240.44813 Z"
   id="path129"
   inkscape:export-xdpi="96"
   inkscape:export-ydpi="96" />
<path
   style="fill:#d27856;stroke-width:3.31826"
   d="m 226.58444,403.50751 c 13.10713,13.60488 52.85991,23.55966 88.53122,12.11166 35.67132,-11.448 37.56273,-22.29872 37.56273,-22.29872 0,0 -53.49038,17.1886 -85.97617,2.55506 -32.48578,-14.63353 -50.9685,-76.41957 -50.9685,-76.41957 0,0 -22.92919,49.01073 10.85072,84.05157 z"
   id="path131"
   inkscape:export-xdpi="96"
   inkscape:export-ydpi="96" />
<path
   style="fill:#e9bb91;stroke-width:3.31826"
   d="m 136.12862,231.38927 c -7.20062,5.40877 -13.37259,16.2263 -17.18859,23.39375 -3.816,7.16744 -4.7783,14.79945 -17.1886,22.46463 -12.410297,7.632 -22.929186,4.31374 -26.280631,7.632 -3.351444,3.31827 1.426853,15.76175 16.724039,17.68634 15.297192,1.92459 21.966892,-2.38915 21.966892,-2.38915 0,0 1.42685,35.33949 1.42685,54.45268 0,19.11318 10.51889,93.57498 70.71216,104.62479 48.57935,8.92613 75.95501,-3.01962 89.32761,-10.18706 22.96237,-12.31075 29.13434,-20.37413 45.39382,-25.65017 16.2263,-5.24285 26.47973,0.0664 43.80106,-6.83562 19.11318,-7.632 22.92918,-26.74519 34.37719,-35.33948 11.448,-8.5943 20.87186,-6.20515 31.85531,-15.29719 10.98345,-9.09204 8.5943,-18.48272 26.57928,-34.24446 6.8688,-6.00606 14.79945,-10.98345 16.72404,-16.2263 1.92459,-5.24286 -25.7829,-6.70289 -32.48579,-6.70289 -6.70288,0 -15.99402,0.23228 -15.99402,0.23228 0,0 -3.58372,14.56717 -7.89746,23.6592 -4.31374,9.09204 -34.87493,50.17212 -44.43153,54.45268 -9.55659,4.31374 -15.92765,4.31374 -20.87186,6.20515 -4.94421,1.92459 -31.22485,15.29719 -42.20829,16.72404 -10.98345,1.42685 -46.22339,9.62296 -66.39842,-11.31527 -16.88995,-17.52043 -21.0046,-40.74826 -21.9669,-53.6563 -0.96229,-12.90804 -0.96229,-46.82067 -0.96229,-46.82067 0,0 5.74059,6.83562 24.52195,6.83562 11.48119,0 20.37413,-12.01211 18.1509,-16.2263 -2.85371,-5.40877 -15.82811,-3.74964 -21.9669,-7.33336 -7.632,-4.44647 -15.29718,-16.2263 -17.18859,-21.66825 -1.79186,-5.04376 -6.20515,-17.68634 -14.00307,-24.85378 -8.03019,-7.36654 -19.41183,-13.3726 -38.22637,-13.04077 -17.1886,0.29864 -26.74519,2.25642 -36.30179,9.42386 z"
   id="path133"
   inkscape:export-xdpi="96"
   inkscape:export-ydpi="96" />
<path
   style="fill:#e9bb91;stroke-width:3.31826"
   d="m 208.26763,243.33502 c 0,0 7.63201,-74.99272 8.5943,-86.93846 0.9623,-11.94574 5.74059,-40.11778 5.74059,-48.24753 0,-8.12974 -2.38914,-21.966889 -16.72404,-23.393741 -14.33489,-1.426853 -19.11318,16.226301 -19.57774,28.172041 -0.46456,11.94574 -5.74059,114.64594 -5.74059,114.64594 l -20.54004,-0.46455 c 0,0 0.46456,-64.47383 0.9623,-77.84642 0.46455,-13.3726 0.46455,-36.30179 0.46455,-41.08008 0,-4.7783 0,-24.853784 -18.15089,-23.891488 -18.15089,0.962296 -16.2263,21.966898 -16.72404,28.669778 -0.49774,6.70289 2.85371,54.91724 3.35145,64.47383 0.46455,9.55659 4.77829,62.58241 4.77829,62.58241 z"
   id="path135"
   inkscape:export-xdpi="96"
   inkscape:export-ydpi="96" />
<path
   style="fill:#d27856;stroke-width:3.31826"
   d="m 171.16947,263.70914 c 0,0 -6.03924,13.04077 -14.63353,13.04077 -8.5943,0 -8.5943,-7.33336 -13.04077,-4.44647 -4.44647,2.85371 -1.9246,15.92766 9.55659,18.15089 11.448,2.22324 18.15089,-4.14782 18.15089,-4.14782 0,0 6.8688,4.77829 13.37259,4.77829 8.29566,0 17.52043,-12.11165 14.00307,-17.52042 -3.51736,-5.40877 -9.5566,4.14783 -15.29719,3.816 -5.74059,-0.29864 -12.11165,-13.67124 -12.11165,-13.67124 z"
   id="path137"
   inkscape:export-xdpi="96"
   inkscape:export-ydpi="96" />
<path
   style="fill:#d27856;stroke-width:3.31826"
   d="m 257.34473,149.95913 c -15.42992,4.64557 -21.63507,11.11618 -26.28064,15.49629 -4.64556,4.3801 -6.37106,14.40126 -0.89593,20.20821 5.47513,5.80695 15.16446,3.91554 20.30776,0.26546 5.14331,-3.65008 9.98797,-7.33335 17.81907,-9.52341 7.79791,-2.19005 19.54456,-2.75416 23.12828,-4.74511 3.58373,-1.95778 6.17197,-7.66519 4.94421,-13.67124 -1.22775,-6.03924 -4.51283,-9.49023 -13.27304,-11.01663 -6.5038,-1.12821 -15.52947,-0.0995 -25.74971,2.98643 z"
   id="path139"
   inkscape:export-xdpi="96"
   inkscape:export-ydpi="96" />
<path
   style="fill:#d27856;stroke-width:3.31826"
   d="m 307.15184,158.6198 c 0,4.44647 1.26093,7.96383 9.55659,8.92612 9.25795,1.06184 12.74212,-3.51736 12.4103,-8.29565 -0.33183,-4.84467 -2.55506,-7.63201 -9.22477,-8.92613 -6.70289,-1.26094 -12.74212,1.59277 -12.74212,8.29566 z"
   id="path141"
   inkscape:export-xdpi="96"
   inkscape:export-ydpi="96" />
<path
   style="fill:#2e2c2f;stroke-width:3.31826"
   d="m 215.73372,117.83836 c -1.62595,13.60487 -5.80696,23.69239 -12.74212,22.92919 -10.02115,-1.12821 -9.88842,-12.4103 -9.88842,-26.11472 0,-12.84168 3.78282,-22.896009 13.70442,-21.800983 9.49023,1.028661 10.45252,12.244383 8.92612,24.986513 z"
   id="path143"
   inkscape:export-xdpi="96"
   inkscape:export-ydpi="96" />
<path
   style="fill:#2e2c2f;stroke-width:3.31826"
   d="m 155.60682,116.57742 c -0.39819,13.70442 -4.51283,22.73009 -10.91708,23.26102 -7.59882,0.63046 -11.97892,-11.77983 -12.37712,-25.15243 -0.36501,-12.84167 2.35597,-21.203693 11.71347,-21.80098 10.98344,-0.7632 11.94574,10.85072 11.58073,23.69239 z"
   id="path145"
   inkscape:export-xdpi="96"
   inkscape:export-ydpi="96" />
<path
   style="fill:#4f352e;stroke-width:3.31826"
   d="m 356.19574,370.6899 c -19.71047,-1.09502 -49.0439,-19.74365 -50.0062,-74.8268 -0.9623,-55.08315 20.40731,-79.17373 43.93379,-75.15863 22.29871,3.816 26.11472,33.74672 23.55965,54.45268 -2.55506,20.70595 -8.59429,44.26561 -22.29871,37.56272 -13.70443,-6.70289 -6.37107,-32.15396 -3.51736,-38.22638 2.8537,-6.03923 7.00153,-13.04077 2.8537,-17.18859 -4.14782,-4.14783 -13.37259,0.96229 -17.18859,8.5943 -3.816,7.632 -11.77983,25.78289 -4.14783,50.0062 7.632,24.19013 39.15549,27.07702 51.59897,2.55506 12.4103,-24.52195 15.29719,-70.38033 4.44647,-91.71675 -10.81753,-21.33643 -46.1902,-45.2279 -80.23557,-6.03924 -32.91716,37.86137 -20.70595,104.75753 -12.74212,124.50118 7.96382,19.74366 24.85378,43.63515 58.26867,47.78297 33.4149,4.14783 61.78604,-35.33949 64.00927,-38.85684 2.22324,-3.51736 10.81754,-14.96536 3.18553,-21.50234 -7.632,-6.53697 -16.2263,8.42839 -18.48271,11.61392 -2.15687,3.21871 -20.30777,27.74067 -43.23696,26.44654 z"
   id="path147"
   inkscape:export-xdpi="96"
   inkscape:export-ydpi="96" />
<circle
   style="fill:none;fill-opacity:0;stroke:#ffffff;stroke-width:7.058;stroke-miterlimit:4;stroke-dasharray:none;stroke-opacity:1"
   id="path2653"
   cx="274.99988"
   cy="274.99988"
   r="271.47089" /></svg>
