<?xml version="1.0" encoding="UTF-8" standalone="no"?>
<svg
   xmlns:dc="http://purl.org/dc/elements/1.1/"
   xmlns:cc="http://creativecommons.org/ns#"
   xmlns:rdf="http://www.w3.org/1999/02/22-rdf-syntax-ns#"
   xmlns:svg="http://www.w3.org/2000/svg"
   xmlns="http://www.w3.org/2000/svg"
   xmlns:sodipodi="http://sodipodi.sourceforge.net/DTD/sodipodi-0.dtd"
   xmlns:inkscape="http://www.inkscape.org/namespaces/inkscape"
   version="1.1"
   id="Layer_3"
   x="0px"
   y="0px"
   viewBox="0 0 400 424.00385"
   xml:space="preserve"
   sodipodi:docname="unicorn.svg"
   inkscape:export-filename="/opt/mobile/lerninseln/pickUp/public/assets/img/scores/unicorn.png"
   inkscape:export-xdpi="96"
   inkscape:export-ydpi="96"
   width="400"
   height="424.00385"
   inkscape:version="1.0.2 (e86c870879, 2021-01-15)"><metadata
   id="metadata55"><rdf:RDF><cc:Work
       rdf:about=""><dc:format>image/svg+xml</dc:format><dc:type
         rdf:resource="http://purl.org/dc/dcmitype/StillImage" /><dc:title></dc:title></cc:Work></rdf:RDF></metadata><defs
   id="defs53" /><sodipodi:namedview
   pagecolor="#ffffff"
   bordercolor="#666666"
   borderopacity="1"
   objecttolerance="10"
   gridtolerance="10"
   guidetolerance="10"
   inkscape:pageopacity="0"
   inkscape:pageshadow="2"
   inkscape:window-width="1920"
   inkscape:window-height="1145"
   id="namedview51"
   showgrid="false"
   fit-margin-top="0"
   fit-margin-left="0"
   fit-margin-right="0"
   fit-margin-bottom="0"
   inkscape:zoom="1.3710938"
   inkscape:cx="254.9683"
   inkscape:cy="137.59706"
   inkscape:window-x="0"
   inkscape:window-y="0"
   inkscape:window-maximized="1"
   inkscape:current-layer="Layer_3" />
<path
   style="fill:#e74b8c;stroke-width:3.60819"
   d="m 155.47092,69.427084 c 0,0 -39.61792,-9.056555 -71.802974,4.474155 -30.164464,12.700827 -34.458209,36.911781 -31.752067,50.803311 2.706142,13.89153 11.43796,26.05112 28.937679,27.16966 11.943108,0.75772 15.984278,-6.09784 14.324508,-8.98439 -0.86596,-1.47936 -13.530706,-9.48954 -7.721521,-19.48422 4.871051,-8.33492 21.288325,-0.64948 25.978965,6.60299 4.40199,6.78339 10.1751,16.59767 10.1751,16.59767 0,0 49.79301,-21.3244 48.74664,-22.69551 -1.04638,-1.37112 -16.88633,-54.483666 -16.88633,-54.483666 z"
   id="path2"
   inkscape:export-xdpi="96"
   inkscape:export-ydpi="96" />
<polygon
   style="fill:#fcd817"
   points="43.06,43.53 53.34,39.03 50.43,32.51 46.11,28.66 39.03,37.25 "
   id="polygon4"
   transform="matrix(3.6081894,0,0,3.6081894,-28.871483,-20.092096)"
   inkscape:export-xdpi="96"
   inkscape:export-ydpi="96" />
<path
   style="fill:#ef7fad;stroke-width:3.60819"
   d="m 75.224783,110.74085 c -1.948423,5.73702 -0.216492,14.93791 -7.432871,15.73171 -7.43287,0.82988 -12.809072,-8.15451 -8.298835,-22.5151 3.896844,-12.376092 19.267731,-19.736799 25.221244,-9.633868 4.365909,7.432868 -5.953513,5.917428 -9.489538,16.417258 z"
   id="path6"
   inkscape:export-xdpi="96"
   inkscape:export-ydpi="96" />
<path
   style="fill:#bbd047;stroke-width:3.60819"
   d="m 111.2706,55.715965 c -1.01029,1.695849 -18.618264,27.602649 -18.618264,27.602649 l 16.922414,26.917096 20.31411,-10.31942 4.22158,-20.494521 z"
   id="path8"
   inkscape:export-xdpi="96"
   inkscape:export-ydpi="96" />
<polygon
   style="fill:#62a5a8"
   points="37.29,26.26 39.08,21.15 33.49,15.52 29.22,20.91 33.4,28.19 "
   id="polygon10"
   transform="matrix(3.6081894,0,0,3.6081894,-28.871483,-20.092096)"
   inkscape:export-xdpi="96"
   inkscape:export-ydpi="96" />
<polygon
   style="fill:#38b2e8"
   points="31.57,18.76 33.3,15.28 27.67,9.65 24.72,12.75 29.08,20.59 "
   id="polygon12"
   transform="matrix(3.6081894,0,0,3.6081894,-28.871483,-20.092096)"
   inkscape:export-xdpi="96"
   inkscape:export-ydpi="96" />
<path
   style="fill:#a37bcb;stroke-width:3.60819"
   d="M 50.653012,0.69107497 C 47.008741,4.3353464 60.286878,25.767992 60.286878,25.767992 c 0,0 9.814276,-11.185387 9.814276,-11.834861 0.03608,-0.721638 -15.22656,-17.4997195 -19.448142,-13.24205603 z"
   id="path14"
   inkscape:export-xdpi="96"
   inkscape:export-ydpi="96" />
<path
   style="fill:#a364b2;stroke-width:3.60819"
   d="m 134.14652,78.050657 c 4.90714,-1.371112 8.29884,7.793689 3.89684,17.102823 -3.93292,8.29883 -9.63386,14.72141 -17.28322,18.97907 -3.7886,2.09275 -9.48954,4.40199 -11.69054,0.32474 -2.3814,-4.36591 0.32474,-6.60299 5.08755,-9.99469 4.36591,-3.13912 8.80398,-7.79369 11.32972,-12.195676 2.52573,-4.401992 4.9793,-13.205974 8.65965,-14.216267 z"
   id="path16"
   inkscape:export-xdpi="96"
   inkscape:export-ydpi="96" />
<path
   style="fill:#a364b2;stroke-width:3.60819"
   d="m 110.76545,53.514969 c 3.96901,-1.154621 6.92773,6.783396 3.35562,14.757495 -3.17521,7.108133 -7.10813,12.77299 -13.24206,16.417262 -3.030884,1.804094 -7.649364,3.788599 -9.417375,0.288655 -1.91234,-3.752517 -0.108246,-6.386495 3.716431,-9.309129 3.53603,-2.67006 6.602994,-7.577198 8.623584,-11.329715 2.05666,-3.752517 4.00509,-9.958603 6.9638,-10.824568 z"
   id="path18"
   inkscape:export-xdpi="96"
   inkscape:export-ydpi="96" />
<path
   style="fill:#a364b2;stroke-width:3.60819"
   d="m 90.523506,31.865832 c 3.28345,0.902048 5.59269,6.711233 2.63398,12.664745 -2.63398,5.304039 -5.195795,8.118426 -10.319424,10.824569 -2.561814,1.33503 -5.52053,3.030879 -7.144215,1.010293 -2.056668,-2.525733 -2.814388,-6.133922 0.396901,-8.298836 2.958715,-1.984504 6.27825,-4.401991 8.479245,-8.623573 1.479358,-2.922633 2.922634,-8.407081 5.953513,-7.577198 z"
   id="path20"
   inkscape:export-xdpi="96"
   inkscape:export-ydpi="96" />
<path
   style="fill:#a364b2;stroke-width:3.60819"
   d="m 68.802205,11.804299 c 2.237078,-0.541229 4.979302,4.149418 2.994798,7.901935 -1.768013,3.355616 -4.041173,5.484448 -7.505035,7.216379 -1.695849,0.865965 -3.608189,1.371112 -4.618482,-0.252574 -1.082457,-1.768012 -2.09275,-2.994797 0.07216,-4.365909 1.984504,-1.262866 4.76281,-4.113336 5.91743,-5.91743 1.154621,-1.768013 1.479358,-4.149418 3.139125,-4.582401 z"
   id="path22"
   inkscape:export-xdpi="96"
   inkscape:export-ydpi="96" />
<path
   style="fill:#dfdfdf;stroke-width:3.60819"
   d="m 152.54829,412.52982 c -3.64427,-2.41749 14.43275,-65.27215 21.54089,-82.01415 7.10813,-16.77808 11.32971,-30.81394 11.32971,-30.81394 0,0 -34.02522,5.23188 -56.03518,5.41229 -16.77808,0.14433 -41.133364,-2.02059 -41.133364,-2.02059 L 39.467625,239.08415 c 0,0 13.71112,-24.8965 21.829546,-35.03552 8.118427,-10.17509 32.509785,-43.19002 44.705469,-54.84448 12.19568,-11.69053 28.93768,-23.88621 36.0819,-26.91709 7.10813,-3.03088 11.69053,-5.08755 11.69053,-5.08755 0,0 -3.57211,-21.82954 -2.02059,-35.540663 1.51544,-13.71112 20.96359,-51.99401 24.03055,-51.99401 4.07725,0 21.68522,26.087209 25.22124,43.839501 3.57211,17.752293 42.17974,67.545302 42.17974,67.545302 l 112.75592,213.35225 c 0,0 2.02058,56.90114 1.51544,58.92173 -0.50515,2.02059 -62.99899,10.68024 -101.10147,10.68024 -38.10248,0 -100.74065,-9.41737 -103.80761,-11.47404 z"
   id="path24"
   inkscape:export-xdpi="96"
   inkscape:export-ydpi="96" />
<path
   style="fill:#b0b0b0;stroke-width:3.60819"
   d="m 229.36664,230.24409 c -3.75252,-0.18041 -14.46884,21.28832 -25.22124,37.09219 -9.05656,13.27813 -19.66464,19.66463 -30.99435,25.58206 -11.69054,6.09784 -29.04593,10.06685 -23.1285,11.25755 5.91743,1.1907 41.24161,-2.74222 53.07647,-7.72153 6.67515,-2.7783 15.98428,-16.5255 20.74709,-25.65422 4.76281,-9.12872 13.31422,-40.23131 5.52053,-40.55605 z"
   id="path26"
   inkscape:export-xdpi="96"
   inkscape:export-ydpi="96" />
<path
   style="fill:#303030;stroke-width:3.60819"
   d="m 165.21303,188.9664 c 0.75772,11.18539 -3.31953,20.81925 -14.97398,21.57697 -8.22668,0.54123 -14.39668,-7.79369 -15.44306,-17.96878 -0.82988,-7.93802 2.48966,-18.18527 13.35031,-19.70071 10.21117,-1.44328 16.34509,5.88134 17.06673,16.09252 z"
   id="path28"
   inkscape:export-xdpi="96"
   inkscape:export-ydpi="96" />
<path
   style="fill:#e74b8c;stroke-width:3.60819"
   d="m 200.50112,73.648666 c 0,0 30.63353,13.783284 42.43231,11.185387 9.12872,-2.020586 12.30393,-8.623572 12.70083,-15.226559 0.50515,-8.876146 -7.36071,-7.865853 -8.62357,-11.437961 -1.26287,-3.572107 8.11842,-9.922521 19.05124,-7.865853 10.93281,2.020586 23.95837,12.123517 23.7058,28.360369 -0.25257,16.236851 -10.24726,24.968671 -10.24726,24.968671 0,0 26.33979,-1.26287 43.94775,16.77808 19.80896,20.31411 15.47913,53.58161 15.47913,53.58161 0,0 10.42767,1.51544 14.21627,-3.82468 3.7886,-5.34012 2.77831,-11.43796 0.25257,-14.97398 -2.52573,-3.57211 4.83498,-5.84527 9.63387,-3.82468 4.83497,2.02058 27.13358,18.00486 15.01007,43.80342 -7.50504,16.02036 -26.44803,18.43784 -26.44803,18.43784 0,0 31.75207,14.03586 43.37044,49.4322 12.77299,38.96845 -1.19071,64.87525 -15.65955,89.73567 -14.46884,24.89651 -13.16989,26.37587 -13.96369,34.53037 -1.01029,10.1751 -4.07725,22.87593 -7.86585,22.58727 -3.82468,-0.25257 -8.371,-10.93281 -10.68024,-22.58727 -2.27316,-11.69053 -16.52551,-23.12849 -27.92739,-33.52008 -11.40188,-10.39158 -40.0509,-37.8499 -48.27757,-62.9629 -10.42767,-31.75207 -5.08755,-75.95239 -5.08755,-75.95239 0,0 -31.4995,-14.46884 -49.0353,-43.4426 -18.97907,-31.35517 -17.28322,-54.33933 -17.28322,-54.33933 0,0 4.83497,-13.71112 5.08754,-23.128497 0.25258,-9.417375 -3.7886,-20.314107 -3.7886,-20.314107 z"
   id="path30"
   inkscape:export-xdpi="96"
   inkscape:export-ydpi="96" />
<path
   style="fill:#f081af;stroke-width:3.60819"
   d="m 250.04157,95.51429 c 2.20099,9.45346 19.55638,4.5824 22.87592,-11.437956 3.31953,-16.020362 -5.84527,-23.128495 -11.18539,-20.061534 -5.34012,3.030879 1.26287,11.185388 -2.27316,18.040947 -3.53603,6.85556 -11.22147,5.809185 -9.41737,13.458543 z"
   id="path32"
   inkscape:export-xdpi="96"
   inkscape:export-ydpi="96" />
<path
   style="fill:#f081af;stroke-width:3.60819"
   d="m 338.08139,187.73962 c -3.03088,9.23696 12.80907,12.44825 25.22124,2.48965 12.73691,-10.24726 9.12872,-25.40166 1.76801,-24.64394 -9.34521,0.97421 -5.3762,11.54621 -11.97918,15.5513 -6.60299,4.04117 -12.5565,-0.7938 -15.01007,6.60299 z"
   id="path34"
   inkscape:export-xdpi="96"
   inkscape:export-ydpi="96" />
<path
   style="fill:#f081af;stroke-width:3.60819"
   d="m 229.98003,107.42132 c -12.19568,-1.51544 -13.89153,22.26253 -6.35041,38.60763 11.94311,25.9068 31.75207,21.07182 45.46319,37.8499 10.60807,12.98949 8.11842,29.73148 19.05124,29.47891 10.93281,-0.25257 13.71112,-18.54609 -3.03088,-40.88078 -16.77808,-22.3347 -37.84991,-22.3347 -44.20032,-35.79324 -6.3865,-13.49463 3.28345,-27.45833 -10.93282,-29.26242 z"
   id="path36"
   inkscape:export-xdpi="96"
   inkscape:export-ydpi="96" />
<path
   style="fill:#f081af;stroke-width:3.60819"
   d="m 291.93264,222.48648 c -13.96369,7.9741 -4.00509,26.05113 3.57211,27.67481 10.68024,2.27316 15.47914,-4.83497 16.77808,-11.9431 1.29895,-7.10814 -6.13392,-23.85014 -20.35019,-15.73171 z"
   id="path38"
   inkscape:export-xdpi="96"
   inkscape:export-ydpi="96" />
<path
   style="fill:#f081af;stroke-width:3.60819"
   d="m 302.61289,265.42394 c -11.04106,1.80409 -9.81428,12.88123 -7.86586,24.13878 3.31954,19.30382 13.45855,37.84991 25.40166,47.73635 11.5462,9.5617 18.04094,6.60299 21.3244,2.7783 3.89684,-4.47415 0.25257,-12.44825 -4.32983,-17.78837 -4.5824,-5.34012 -10.49983,-12.19568 -14.46884,-18.04095 -4.83497,-7.10813 -5.41229,-16.34509 -6.35041,-21.57697 -1.76802,-10.13901 -2.81439,-19.05124 -13.71112,-17.24714 z"
   id="path40"
   inkscape:export-xdpi="96"
   inkscape:export-ydpi="96" />
<path
   style="fill:#ffffff;stroke-width:3.60819"
   d="m 12.045385,316.47982 c 11.185388,21.1079 37.344761,15.7317 37.344761,15.7317 0,0 24.643934,-11.18539 24.643934,-11.94311 0,-0.75771 16.236853,-21.32439 16.236853,-21.32439 0,0 -4.329828,-18.5461 -21.071827,-38.86021 C 55.957051,244.06345 42.02944,236.1976 42.02944,236.1976 l -30.489201,27.42224 c 0,0 -15.2265596,23.12849 0.505146,52.85998 z"
   id="path42"
   inkscape:export-xdpi="96"
   inkscape:export-ydpi="96" />
<path
   style="fill:#90909b;stroke-width:3.60819"
   d="m 32.106919,260.84153 c -1.768013,6.60299 4.077254,9.12872 6.09784,11.43797 2.020586,2.27315 -2.778306,11.9431 4.077254,14.46883 6.85556,2.52574 14.721413,-8.87614 12.19568,-18.79866 -2.742224,-10.60808 -19.700714,-16.99457 -22.370774,-7.10814 z"
   id="path44"
   inkscape:export-xdpi="96"
   inkscape:export-ydpi="96" />
<path
   style="fill:#afafaf;stroke-width:3.60819"
   d="m 45.060319,235.36772 c -1.768013,-3.3917 -5.664858,-1.69585 -9.489539,1.87626 -3.82468,3.5721 -25.401653,19.30381 -31.4994929,33.70049 -4.47415527,10.57199 -7.6854439,30.95826 3.932926,47.55593 12.0513529,17.24715 22.8759209,18.90691 39.3653469,17.5358 24.138787,-2.02058 37.489088,-21.82954 40.050903,-25.14908 2.561814,-3.31953 8.118423,-10.49983 5.087543,-14.03585 -3.030875,-3.57211 -5.881345,1.5876 -9.814271,6.92772 -5.087547,6.85556 -9.12872,11.00498 -14.216267,15.58738 -2.958715,2.67006 -11.43796,7.28854 -14.973986,8.04626 -3.572108,0.75772 7.035969,-5.34012 11.185387,-12.44825 2.814388,-4.7989 8.623573,-16.23686 8.623573,-16.23686 l -9.922521,-3.03088 c 0,0 -4.834974,10.49984 -8.623573,15.08224 -3.82468,4.5824 -15.731706,14.90182 -19.303813,15.65954 -3.572108,0.75772 -17.030654,-5.23188 -23.020249,-15.98428 -5.7731029,-10.31942 -6.6751499,-25.14908 -0.829883,-36.83961 5.845266,-11.69054 20.566679,-23.63365 25.14908,-27.16967 4.510237,-3.64427 10.571995,-6.74732 8.298836,-11.07714 z"
   id="path46"
   inkscape:export-xdpi="96"
   inkscape:export-ydpi="96" />
<path
   style="fill:#90909b;stroke-width:3.60819"
   d="m 74.03408,288.87717 c -2.742224,-2.38141 -7.288543,-0.68556 -9.633866,2.52573 -2.381405,3.21129 -3.211288,6.92772 1.51544,9.48954 4.726728,2.52573 7.793689,-0.18041 9.994685,-3.21129 2.164913,-3.06696 0.649474,-6.60299 -1.876259,-8.80398 z"
   id="path48"
   inkscape:export-xdpi="96"
   inkscape:export-ydpi="96" />
</svg>
