<?xml version="1.0" encoding="UTF-8" standalone="no"?>
<svg
   xmlns:dc="http://purl.org/dc/elements/1.1/"
   xmlns:cc="http://creativecommons.org/ns#"
   xmlns:rdf="http://www.w3.org/1999/02/22-rdf-syntax-ns#"
   xmlns:svg="http://www.w3.org/2000/svg"
   xmlns="http://www.w3.org/2000/svg"
   xmlns:sodipodi="http://sodipodi.sourceforge.net/DTD/sodipodi-0.dtd"
   xmlns:inkscape="http://www.inkscape.org/namespaces/inkscape"
   version="1.1"
   id="Layer_3"
   x="0px"
   y="0px"
   viewBox="0 0 550 550.00001"
   xml:space="preserve"
   sodipodi:docname="unicorn.svg"
   inkscape:export-filename="/opt/mobile/lerninseln/pickUp/public/assets/img/scores/unicorn.png"
   inkscape:export-xdpi="96"
   inkscape:export-ydpi="96"
   width="550"
   height="550"
   inkscape:version="1.0.2 (e86c870879, 2021-01-15)"><metadata
   id="metadata55"><rdf:RDF><cc:Work
       rdf:about=""><dc:format>image/svg+xml</dc:format><dc:type
         rdf:resource="http://purl.org/dc/dcmitype/StillImage" /><dc:title></dc:title></cc:Work></rdf:RDF></metadata><defs
   id="defs53" /><sodipodi:namedview
   pagecolor="#ffffff"
   bordercolor="#666666"
   borderopacity="1"
   objecttolerance="10"
   gridtolerance="10"
   guidetolerance="10"
   inkscape:pageopacity="0"
   inkscape:pageshadow="2"
   inkscape:window-width="1920"
   inkscape:window-height="1145"
   id="namedview51"
   showgrid="false"
   fit-margin-top="0"
   fit-margin-left="0"
   fit-margin-right="0"
   fit-margin-bottom="0"
   inkscape:zoom="1.3710938"
   inkscape:cx="329.9683"
   inkscape:cy="255.94463"
   inkscape:window-x="0"
   inkscape:window-y="0"
   inkscape:window-maximized="1"
   inkscape:current-layer="Layer_3"
   inkscape:document-rotation="0" />
<path
   style="fill:#e74b8c;stroke-width:3.60819"
   d="m 230.47092,129.42708 c 0,0 -39.61792,-9.05655 -71.80298,4.47416 -30.16446,12.70082 -34.45821,36.91178 -31.75206,50.80331 2.70614,13.89153 11.43796,26.05112 28.93767,27.16966 11.94311,0.75772 15.98428,-6.09784 14.32451,-8.98439 -0.86596,-1.47936 -13.5307,-9.48954 -7.72152,-19.48422 4.87105,-8.33492 21.28833,-0.64948 25.97897,6.60299 4.40199,6.78339 10.1751,16.59767 10.1751,16.59767 0,0 49.79301,-21.3244 48.74664,-22.69551 -1.04638,-1.37112 -16.88633,-54.48367 -16.88633,-54.48367 z"
   id="path2"
   inkscape:export-xdpi="96"
   inkscape:export-ydpi="96" />
<polygon
   style="fill:#fcd817"
   points="50.43,32.51 46.11,28.66 39.03,37.25 43.06,43.53 53.34,39.03 "
   id="polygon4"
   transform="matrix(3.6081894,0,0,3.6081894,46.128513,39.9079)"
   inkscape:export-xdpi="96"
   inkscape:export-ydpi="96" />
<path
   style="fill:#ef7fad;stroke-width:3.60819"
   d="m 150.22478,170.74085 c -1.94842,5.73702 -0.21649,14.93791 -7.43287,15.73171 -7.43287,0.82988 -12.80907,-8.15451 -8.29884,-22.5151 3.89685,-12.3761 19.26773,-19.7368 25.22125,-9.63387 4.36591,7.43287 -5.95352,5.91743 -9.48954,16.41726 z"
   id="path6"
   inkscape:export-xdpi="96"
   inkscape:export-ydpi="96" />
<path
   style="fill:#bbd047;stroke-width:3.60819"
   d="m 186.2706,115.71596 c -1.01029,1.69585 -18.61827,27.60265 -18.61827,27.60265 l 16.92242,26.9171 20.31411,-10.31942 4.22158,-20.49452 z"
   id="path8"
   inkscape:export-xdpi="96"
   inkscape:export-ydpi="96" />
<polygon
   style="fill:#62a5a8"
   points="33.49,15.52 29.22,20.91 33.4,28.19 37.29,26.26 39.08,21.15 "
   id="polygon10"
   transform="matrix(3.6081894,0,0,3.6081894,46.128513,39.9079)"
   inkscape:export-xdpi="96"
   inkscape:export-ydpi="96" />
<polygon
   style="fill:#38b2e8"
   points="27.67,9.65 24.72,12.75 29.08,20.59 31.57,18.76 33.3,15.28 "
   id="polygon12"
   transform="matrix(3.6081894,0,0,3.6081894,46.128513,39.9079)"
   inkscape:export-xdpi="96"
   inkscape:export-ydpi="96" />
<path
   style="fill:#a37bcb;stroke-width:3.60819"
   d="m 125.65301,60.691071 c -3.64427,3.644272 9.63386,25.076917 9.63386,25.076917 0,0 9.81428,-11.185387 9.81428,-11.834861 0.0361,-0.721638 -15.22656,-17.499719 -19.44814,-13.242056 z"
   id="path14"
   inkscape:export-xdpi="96"
   inkscape:export-ydpi="96" />
<path
   style="fill:#a364b2;stroke-width:3.60819"
   d="m 209.14652,138.05065 c 4.90714,-1.37111 8.29884,7.79369 3.89684,17.10283 -3.93292,8.29883 -9.63386,14.72141 -17.28322,18.97907 -3.7886,2.09275 -9.48954,4.40199 -11.69054,0.32474 -2.3814,-4.36591 0.32474,-6.60299 5.08755,-9.99469 4.36591,-3.13912 8.80398,-7.79369 11.32972,-12.19568 2.52573,-4.40199 4.9793,-13.20597 8.65965,-14.21627 z"
   id="path16"
   inkscape:export-xdpi="96"
   inkscape:export-ydpi="96" />
<path
   style="fill:#a364b2;stroke-width:3.60819"
   d="m 185.76545,113.51497 c 3.96901,-1.15463 6.92773,6.78339 3.35562,14.75749 -3.17521,7.10813 -7.10813,12.77299 -13.24206,16.41726 -3.03089,1.8041 -7.64937,3.7886 -9.41738,0.28866 -1.91234,-3.75252 -0.10824,-6.3865 3.71643,-9.30913 3.53603,-2.67006 6.603,-7.5772 8.62359,-11.32972 2.05666,-3.75251 4.00509,-9.9586 6.9638,-10.82456 z"
   id="path18"
   inkscape:export-xdpi="96"
   inkscape:export-ydpi="96" />
<path
   style="fill:#a364b2;stroke-width:3.60819"
   d="m 165.5235,91.865828 c 3.28345,0.902048 5.59269,6.711233 2.63398,12.664742 -2.63398,5.30404 -5.19579,8.11843 -10.31942,10.82457 -2.56182,1.33503 -5.52053,3.03088 -7.14422,1.0103 -2.05666,-2.52574 -2.81438,-6.13393 0.3969,-8.29884 2.95872,-1.9845 6.27825,-4.40199 8.47925,-8.623574 1.47936,-2.922633 2.92263,-8.407081 5.95351,-7.577198 z"
   id="path20"
   inkscape:export-xdpi="96"
   inkscape:export-ydpi="96" />
<path
   style="fill:#a364b2;stroke-width:3.60819"
   d="m 143.8022,71.804295 c 2.23708,-0.541229 4.9793,4.149418 2.9948,7.901935 -1.76801,3.355616 -4.04117,5.484448 -7.50504,7.216379 -1.69584,0.865965 -3.60818,1.371112 -4.61848,-0.252574 -1.08245,-1.768012 -2.09275,-2.994797 0.0722,-4.365909 1.98451,-1.262866 4.76281,-4.113336 5.91743,-5.91743 1.15462,-1.768013 1.47936,-4.149418 3.13913,-4.582401 z"
   id="path22"
   inkscape:export-xdpi="96"
   inkscape:export-ydpi="96" />
<path
   style="fill:#dfdfdf;stroke-width:3.60819"
   d="m 227.54829,472.52982 c -3.64427,-2.41749 14.43275,-65.27215 21.54089,-82.01415 7.10813,-16.77808 11.32971,-30.81394 11.32971,-30.81394 0,0 -34.02522,5.23188 -56.03518,5.41229 -16.77808,0.14433 -41.13337,-2.02059 -41.13337,-2.02059 l -48.78272,-64.00928 c 0,0 13.71112,-24.8965 21.82955,-35.03552 8.11842,-10.17509 32.50978,-43.19002 44.70547,-54.84448 12.19568,-11.69053 28.93768,-23.88621 36.0819,-26.91709 7.10813,-3.03088 11.69053,-5.08755 11.69053,-5.08755 0,0 -3.57211,-21.82954 -2.02059,-35.54067 1.51544,-13.71112 20.96359,-51.994007 24.03055,-51.994007 4.07725,0 21.68522,26.087207 25.22124,43.839497 3.57211,17.7523 42.17974,67.54531 42.17974,67.54531 l 112.75592,213.35225 c 0,0 2.02058,56.90114 1.51544,58.92173 -0.50515,2.02059 -62.99899,10.68024 -101.10147,10.68024 -38.10248,0 -100.74065,-9.41737 -103.80761,-11.47404 z"
   id="path24"
   inkscape:export-xdpi="96"
   inkscape:export-ydpi="96" />
<path
   style="fill:#b0b0b0;stroke-width:3.60819"
   d="m 304.36664,290.24409 c -3.75252,-0.18041 -14.46884,21.28832 -25.22124,37.09219 -9.05656,13.27813 -19.66464,19.66463 -30.99435,25.58206 -11.69054,6.09784 -29.04593,10.06685 -23.1285,11.25755 5.91743,1.1907 41.24161,-2.74222 53.07647,-7.72153 6.67515,-2.7783 15.98428,-16.5255 20.74709,-25.65422 4.76281,-9.12872 13.31422,-40.23131 5.52053,-40.55605 z"
   id="path26"
   inkscape:export-xdpi="96"
   inkscape:export-ydpi="96" />
<path
   style="fill:#303030;stroke-width:3.60819"
   d="m 240.21303,248.9664 c 0.75772,11.18539 -3.31953,20.81925 -14.97398,21.57697 -8.22668,0.54123 -14.39668,-7.79369 -15.44306,-17.96878 -0.82988,-7.93802 2.48966,-18.18527 13.35031,-19.70071 10.21117,-1.44328 16.34509,5.88134 17.06673,16.09252 z"
   id="path28"
   inkscape:export-xdpi="96"
   inkscape:export-ydpi="96" />
<path
   style="fill:#e74b8c;stroke-width:3.60819"
   d="m 275.50112,133.64866 c 0,0 30.63353,13.78329 42.43231,11.18539 9.12872,-2.02059 12.30393,-8.62357 12.70083,-15.22656 0.50515,-8.87615 -7.36071,-7.86585 -8.62357,-11.43796 -1.26287,-3.57211 8.11842,-9.92252 19.05124,-7.86585 10.93281,2.02058 23.95837,12.12351 23.7058,28.36037 -0.25257,16.23685 -10.24726,24.96867 -10.24726,24.96867 0,0 26.33979,-1.26287 43.94775,16.77808 19.80896,20.31411 15.47913,53.58161 15.47913,53.58161 0,0 10.42767,1.51544 14.21627,-3.82468 3.7886,-5.34012 2.77831,-11.43796 0.25257,-14.97398 -2.52573,-3.57211 4.83498,-5.84527 9.63387,-3.82468 4.83497,2.02058 27.13358,18.00486 15.01007,43.80342 -7.50504,16.02036 -26.44803,18.43784 -26.44803,18.43784 0,0 31.75207,14.03586 43.37044,49.4322 12.77299,38.96845 -1.19071,64.87525 -15.65955,89.73567 -14.46884,24.89651 -13.16989,26.37587 -13.96369,34.53037 -1.01029,10.1751 -4.07725,22.87593 -7.86585,22.58727 -3.82468,-0.25257 -8.371,-10.93281 -10.68024,-22.58727 -2.27316,-11.69053 -16.52551,-23.12849 -27.92739,-33.52008 -11.40188,-10.39158 -40.0509,-37.8499 -48.27757,-62.9629 -10.42767,-31.75207 -5.08755,-75.95239 -5.08755,-75.95239 0,0 -31.4995,-14.46884 -49.0353,-43.4426 -18.97907,-31.35517 -17.28322,-54.33933 -17.28322,-54.33933 0,0 4.83497,-13.71112 5.08754,-23.1285 0.25258,-9.41738 -3.7886,-20.31411 -3.7886,-20.31411 z"
   id="path30"
   inkscape:export-xdpi="96"
   inkscape:export-ydpi="96" />
<path
   style="fill:#f081af;stroke-width:3.60819"
   d="m 325.04157,155.51429 c 2.20099,9.45346 19.55638,4.5824 22.87592,-11.43796 3.31953,-16.02036 -5.84527,-23.12849 -11.18539,-20.06153 -5.34012,3.03088 1.26287,11.18538 -2.27316,18.04094 -3.53603,6.85556 -11.22147,5.80919 -9.41737,13.45855 z"
   id="path32"
   inkscape:export-xdpi="96"
   inkscape:export-ydpi="96" />
<path
   style="fill:#f081af;stroke-width:3.60819"
   d="m 413.08139,247.73962 c -3.03088,9.23696 12.80907,12.44825 25.22124,2.48965 12.73691,-10.24726 9.12872,-25.40166 1.76801,-24.64394 -9.34521,0.97421 -5.3762,11.54621 -11.97918,15.5513 -6.60299,4.04117 -12.5565,-0.7938 -15.01007,6.60299 z"
   id="path34"
   inkscape:export-xdpi="96"
   inkscape:export-ydpi="96" />
<path
   style="fill:#f081af;stroke-width:3.60819"
   d="m 304.98003,167.42132 c -12.19568,-1.51544 -13.89153,22.26253 -6.35041,38.60763 11.94311,25.9068 31.75207,21.07182 45.46319,37.8499 10.60807,12.98949 8.11842,29.73148 19.05124,29.47891 10.93281,-0.25257 13.71112,-18.54609 -3.03088,-40.88078 -16.77808,-22.3347 -37.84991,-22.3347 -44.20032,-35.79324 -6.3865,-13.49463 3.28345,-27.45833 -10.93282,-29.26242 z"
   id="path36"
   inkscape:export-xdpi="96"
   inkscape:export-ydpi="96" />
<path
   style="fill:#f081af;stroke-width:3.60819"
   d="m 366.93264,282.48648 c -13.96369,7.9741 -4.00509,26.05113 3.57211,27.67481 10.68024,2.27316 15.47914,-4.83497 16.77808,-11.9431 1.29895,-7.10814 -6.13392,-23.85014 -20.35019,-15.73171 z"
   id="path38"
   inkscape:export-xdpi="96"
   inkscape:export-ydpi="96" />
<path
   style="fill:#f081af;stroke-width:3.60819"
   d="m 377.61289,325.42394 c -11.04106,1.80409 -9.81428,12.88123 -7.86586,24.13878 3.31954,19.30382 13.45855,37.84991 25.40166,47.73635 11.5462,9.5617 18.04094,6.60299 21.3244,2.7783 3.89684,-4.47415 0.25257,-12.44825 -4.32983,-17.78837 -4.5824,-5.34012 -10.49983,-12.19568 -14.46884,-18.04095 -4.83497,-7.10813 -5.41229,-16.34509 -6.35041,-21.57697 -1.76802,-10.13901 -2.81439,-19.05124 -13.71112,-17.24714 z"
   id="path40"
   inkscape:export-xdpi="96"
   inkscape:export-ydpi="96" />
<path
   style="fill:#ffffff;stroke-width:3.60819"
   d="m 87.045381,376.47982 c 11.185388,21.1079 37.344759,15.7317 37.344759,15.7317 0,0 24.64394,-11.18539 24.64394,-11.94311 0,-0.75771 16.23685,-21.32439 16.23685,-21.32439 0,0 -4.32983,-18.5461 -21.07183,-38.86021 -13.24205,-16.02036 -27.16966,-23.88621 -27.16966,-23.88621 l -30.489205,27.42224 c 0,0 -15.226559,23.12849 0.505146,52.85998 z"
   id="path42"
   inkscape:export-xdpi="96"
   inkscape:export-ydpi="96" />
<path
   style="fill:#90909b;stroke-width:3.60819"
   d="m 107.10692,320.84153 c -1.76802,6.60299 4.07725,9.12872 6.09784,11.43797 2.02058,2.27315 -2.77831,11.9431 4.07725,14.46883 6.85556,2.52574 14.72141,-8.87614 12.19568,-18.79866 -2.74222,-10.60808 -19.70071,-16.99457 -22.37077,-7.10814 z"
   id="path44"
   inkscape:export-xdpi="96"
   inkscape:export-ydpi="96" />
<path
   style="fill:#afafaf;stroke-width:3.60819"
   d="m 120.06032,295.36772 c -1.76802,-3.3917 -5.66486,-1.69585 -9.48954,1.87626 -3.82468,3.5721 -25.401657,19.30381 -31.499497,33.70049 -4.474155,10.57199 -7.685444,30.95826 3.932926,47.55593 12.051353,17.24715 22.875921,18.90691 39.365351,17.5358 24.13878,-2.02058 37.48908,-21.82954 40.0509,-25.14908 2.56181,-3.31953 8.11842,-10.49983 5.08754,-14.03585 -3.03087,-3.57211 -5.88134,1.5876 -9.81427,6.92772 -5.08755,6.85556 -9.12872,11.00498 -14.21627,15.58738 -2.95871,2.67006 -11.43796,7.28854 -14.97398,8.04626 -3.57211,0.75772 7.03597,-5.34012 11.18539,-12.44825 2.81438,-4.7989 8.62357,-16.23686 8.62357,-16.23686 l -9.92252,-3.03088 c 0,0 -4.83498,10.49984 -8.62358,15.08224 -3.82468,4.5824 -15.7317,14.90182 -19.30381,15.65954 -3.57211,0.75772 -17.030653,-5.23188 -23.020248,-15.98428 -5.773103,-10.31942 -6.67515,-25.14908 -0.829883,-36.83961 5.845266,-11.69054 20.566681,-23.63365 25.149081,-27.16967 4.51024,-3.64427 10.57199,-6.74732 8.29884,-11.07714 z"
   id="path46"
   inkscape:export-xdpi="96"
   inkscape:export-ydpi="96" />
<path
   style="fill:#90909b;stroke-width:3.60819"
   d="m 149.03408,348.87717 c -2.74223,-2.38141 -7.28855,-0.68556 -9.63387,2.52573 -2.3814,3.21129 -3.21129,6.92772 1.51544,9.48954 4.72673,2.52573 7.79369,-0.18041 9.99469,-3.21129 2.16491,-3.06696 0.64947,-6.60299 -1.87626,-8.80398 z"
   id="path48"
   inkscape:export-xdpi="96"
   inkscape:export-ydpi="96" />
<circle
   style="fill:none;fill-opacity:0;stroke:#ffffff;stroke-width:7.05822;stroke-opacity:1"
   id="path2653"
   cx="275"
   cy="275"
   r="271.47089" /></svg>
